<?xml version="1.0" encoding="UTF-8"?>
<!DOCTYPE svg PUBLIC "-//W3C//DTD SVG 1.1//EN" "http://www.w3.org/Graphics/SVG/1.1/DTD/svg11.dtd">
<svg xmlns="http://www.w3.org/2000/svg" version="1.1" width="1253px" height="538px" style="shape-rendering:geometricPrecision; text-rendering:geometricPrecision; image-rendering:optimizeQuality; fill-rule:evenodd; clip-rule:evenodd" xmlns:xlink="http://www.w3.org/1999/xlink">
<g><path style="opacity:1" fill="#0c0d10" d="M -0.5,-0.5 C 417.167,-0.5 834.833,-0.5 1252.5,-0.5C 1252.5,178.833 1252.5,358.167 1252.5,537.5C 834.833,537.5 417.167,537.5 -0.5,537.5C -0.5,358.167 -0.5,178.833 -0.5,-0.5 Z"/></g>
<g><path style="opacity:1" fill="#edcba6" d="M 360.5,58.5 C 361.802,60.8218 363.802,62.1551 366.5,62.5C 391.515,76.5122 412.848,94.8455 430.5,117.5C 429.761,117.369 429.094,117.536 428.5,118C 430.5,120.667 432.5,123.333 434.5,126C 432.549,127.734 431.549,129.901 431.5,132.5C 432.822,132.33 433.989,132.663 435,133.5C 435.471,131.754 436.138,130.087 437,128.5C 439.571,130.976 441.071,133.976 441.5,137.5C 442.675,137.281 443.675,137.614 444.5,138.5C 445.847,142.696 447.847,146.529 450.5,150C 449.725,151.23 448.725,151.563 447.5,151C 446.378,148.876 444.878,147.043 443,145.5C 442.517,146.448 442.351,147.448 442.5,148.5C 416.323,119.074 384.323,98.7408 346.5,87.5C 344.786,86.2616 342.786,85.595 340.5,85.5C 329.271,83.5232 317.938,82.1898 306.5,81.5C 298.344,80.3434 290.01,80.1768 281.5,81C 279.942,81.21 278.609,81.71 277.5,82.5C 277.167,82.5 276.833,82.5 276.5,82.5C 273.447,82.1107 270.78,82.7773 268.5,84.5C 264.865,85.1143 261.198,85.4476 257.5,85.5C 254.873,86.1049 252.207,86.6049 249.5,87C 248.944,87.3826 248.611,87.8826 248.5,88.5C 196.491,104.758 157.324,136.758 131,184.5C 128.924,187.893 127.758,191.56 127.5,195.5C 124.18,199.144 122.18,203.478 121.5,208.5C 116.43,220.033 113.43,232.033 112.5,244.5C 111.239,247.258 110.406,250.258 110,253.5C 109.221,271.525 109.387,289.525 110.5,307.5C 113.449,335.34 122.449,361.34 137.5,385.5C 137.023,386.478 136.357,387.311 135.5,388C 137.18,388.034 138.68,388.201 140,388.5C 139.847,391.174 139.347,393.84 138.5,396.5C 137.559,398.772 136.226,400.772 134.5,402.5C 125.068,413.104 115.401,423.604 105.5,434C 103.613,434.163 102.113,433.329 101,431.5C 71.6819,399.536 52.3486,362.203 43,319.5C 42.006,314.882 41.506,310.215 41.5,305.5C 41.7014,289.559 41.7014,273.559 41.5,257.5C 41.8809,250.822 42.0475,244.156 42,237.5C 41.7679,238.737 41.2679,239.737 40.5,240.5C 57.2413,144.254 111.908,80.4206 204.5,49C 244.624,37.1185 284.957,36.4518 325.5,47C 337.278,50.5372 348.945,54.3705 360.5,58.5 Z"/></g>
<g><path style="opacity:1" fill="#5f5644" d="M 360.5,58.5 C 363.198,58.8449 365.198,60.1782 366.5,62.5C 363.802,62.1551 361.802,60.8218 360.5,58.5 Z"/></g>
<g><path style="opacity:1" fill="#958570" d="M 306.5,81.5 C 296.822,81.5747 287.156,81.9081 277.5,82.5C 278.609,81.71 279.942,81.21 281.5,81C 290.01,80.1768 298.344,80.3434 306.5,81.5 Z"/></g>
<g><path style="opacity:1" fill="#0e0e10" d="M 306.5,81.5 C 317.938,82.1898 329.271,83.5232 340.5,85.5C 341.918,87.3079 343.918,87.9746 346.5,87.5C 384.323,98.7408 416.323,119.074 442.5,148.5C 448.889,156.061 454.722,164.061 460,172.5C 464.804,181.772 469.304,191.105 473.5,200.5C 475.505,209.982 476.338,210.316 476,201.5C 475.623,200.058 474.79,199.058 473.5,198.5C 471.095,189.285 468.095,180.285 464.5,171.5C 467.091,172.254 468.924,173.921 470,176.5C 470.601,179.637 471.601,182.637 473,185.5C 474.268,185.616 475.602,185.949 477,186.5C 477.333,188.167 477.667,189.833 478,191.5C 482.891,195.935 488.224,199.601 494,202.5C 494.216,206.71 492.716,207.376 489.5,204.5C 488.614,205.325 488.281,206.325 488.5,207.5C 485.011,207.691 484.844,208.024 488,208.5C 490.089,207.555 492.089,207.555 494,208.5C 494.617,209.449 494.451,210.282 493.5,211C 491.913,211.862 490.246,212.529 488.5,213C 490.568,213.687 492.568,213.52 494.5,212.5C 496.208,215.807 497.541,219.307 498.5,223C 497.971,224.559 497.304,226.059 496.5,227.5C 498.167,230.167 499.833,232.833 501.5,235.5C 500.282,236.803 500.615,237.803 502.5,238.5C 501.167,240.167 501.167,241.833 502.5,243.5C 497.086,247.55 497.252,251.217 503,254.5C 503.497,256.81 503.663,259.143 503.5,261.5C 502.178,261.67 501.011,261.337 500,260.5C 499.338,262.813 498.838,265.146 498.5,267.5C 499.978,267.238 501.311,267.571 502.5,268.5C 501.167,270.5 501.167,272.5 502.5,274.5C 500.78,275.934 498.78,276.767 496.5,277C 498.458,278.579 500.458,278.412 502.5,276.5C 505.059,279.76 505.059,283.094 502.5,286.5C 498.964,288.164 497.464,290.831 498,294.5C 499.205,295.071 500.372,295.738 501.5,296.5C 499.615,297.197 499.282,298.197 500.5,299.5C 499.675,300.386 498.675,300.719 497.5,300.5C 497.719,299.325 497.386,298.325 496.5,297.5C 496.446,298.53 496.112,299.697 495.5,301C 497.952,301.29 500.285,301.956 502.5,303C 500.46,304.38 498.46,304.88 496.5,304.5C 498.5,305.333 500.5,306.167 502.5,307C 497.5,308.667 492.5,310.333 487.5,312C 488.833,313.333 488.833,314.667 487.5,316C 489.336,317.419 491.336,318.586 493.5,319.5C 492.711,321.865 493.044,324.199 494.5,326.5C 494.167,326.833 493.833,327.167 493.5,327.5C 491.833,326.167 490.167,324.833 488.5,323.5C 487.294,325.484 487.294,327.484 488.5,329.5C 481.236,330.282 477.569,334.282 477.5,341.5C 477.667,342.167 477.833,342.833 478,343.5C 478.423,342.044 479.256,341.544 480.5,342C 483.482,344.191 483.815,346.524 481.5,349C 483.685,352.02 486.185,352.186 489,349.5C 489.684,350.784 489.517,351.951 488.5,353C 491.04,355.086 490.873,356.586 488,357.5C 482.577,354.677 482.077,355.677 486.5,360.5C 485.619,361.971 484.286,362.804 482.5,363C 484.993,364.583 484.826,366.083 482,367.5C 480.301,366.594 478.467,366.261 476.5,366.5C 476.966,368.201 476.966,369.701 476.5,371C 474.167,372.167 471.833,373.333 469.5,374.5C 467.567,371.195 465.233,371.195 462.5,374.5C 464.167,379.167 465.833,383.833 467.5,388.5C 466.675,389.386 465.675,389.719 464.5,389.5C 466.873,396.575 465.207,402.742 459.5,408C 459.957,408.414 460.291,408.914 460.5,409.5C 458.122,410.956 456.122,410.623 454.5,408.5C 454.977,407.522 455.643,406.689 456.5,406C 454.667,405.5 453.5,404.333 453,402.5C 450.523,405.816 447.356,408.149 443.5,409.5C 446.053,404.062 448.887,398.729 452,393.5C 452.667,392.5 452.667,391.5 452,390.5C 423.076,431.556 383.909,457.223 334.5,467.5C 329.766,468.666 325.1,469.666 320.5,470.5C 319.833,470.5 319.167,470.5 318.5,470.5C 303.833,470.5 289.167,470.5 274.5,470.5C 274.167,470.5 273.833,470.5 273.5,470.5C 269.366,469.515 265.032,469.182 260.5,469.5C 260.539,472.089 259.539,474.089 257.5,475.5C 256.876,469.374 259.543,466.041 265.5,465.5C 269.363,465.632 272.863,466.632 276,468.5C 297.361,469.993 318.861,468.493 340.5,464C 346.723,462.221 352.723,459.888 358.5,457C 357.939,455.434 358.606,454.101 360.5,453C 356.857,449.72 357.857,448.22 363.5,448.5C 363.33,447.178 363.663,446.011 364.5,445C 363.833,444 363.167,443 362.5,442C 363.98,439.441 365.313,436.774 366.5,434C 361.101,430.715 360.768,427.382 365.5,424C 365.333,423.5 365.167,423 365,422.5C 361.214,425.259 357.048,426.925 352.5,427.5C 376.889,416.773 397.889,401.44 415.5,381.5C 418.101,378.396 420.934,375.396 424,372.5C 424.608,370.846 425.108,369.179 425.5,367.5C 431.828,357.844 436.828,347.511 440.5,336.5C 442.411,336.426 443.578,335.426 444,333.5C 454.13,302.945 455.796,271.945 449,240.5C 448.34,238.676 447.173,237.343 445.5,236.5C 435.533,202.692 417.199,174.526 390.5,152C 387.273,149.888 383.94,148.055 380.5,146.5C 379.04,144.537 377.373,142.704 375.5,141C 364.25,135.54 352.916,130.373 341.5,125.5C 341.423,124.25 340.756,123.417 339.5,123C 335.019,121.046 330.352,119.713 325.5,119C 315.839,118.5 306.172,118.334 296.5,118.5C 284.631,117.787 272.964,118.953 261.5,122C 260.619,122.708 259.953,123.542 259.5,124.5C 256.482,124.335 253.482,124.502 250.5,125C 238.532,130.432 226.865,136.432 215.5,143C 212.712,144.719 210.379,146.885 208.5,149.5C 206.641,150.594 204.641,151.427 202.5,152C 195.667,158.833 188.833,165.667 182,172.5C 177.826,179.516 173.159,186.183 168,192.5C 164.86,198.443 162.027,204.443 159.5,210.5C 157.983,210.511 156.816,211.177 156,212.5C 141.733,249.483 139.733,287.15 150,325.5C 150.549,327.76 151.716,329.426 153.5,330.5C 156.116,334.752 157.95,339.419 159,344.5C 163.114,351.729 166.947,359.063 170.5,366.5C 169.527,367.791 168.527,367.791 167.5,366.5C 166.251,368.475 164.751,368.809 163,367.5C 162.888,365.243 163.388,363.076 164.5,361C 164.204,359.112 163.704,357.278 163,355.5C 160.487,354.152 158.653,352.152 157.5,349.5C 156.833,351.167 156.167,352.833 155.5,354.5C 154.191,351.348 154.524,348.348 156.5,345.5C 155.081,343.664 153.914,341.664 153,339.5C 152.028,341.305 150.861,342.972 149.5,344.5C 150.296,348.141 151.796,351.808 154,355.5C 155.067,356.191 156.234,356.691 157.5,357C 158.833,357.667 158.833,358.333 157.5,359C 158.325,360.688 159.325,360.855 160.5,359.5C 163.129,362.289 162.462,364.289 158.5,365.5C 157.914,365.291 157.414,364.957 157,364.5C 156,366.167 155,367.833 154,369.5C 153.163,371.007 151.996,371.507 150.5,371C 147.937,368.47 145.103,366.303 142,364.5C 141.313,362.432 141.48,360.432 142.5,358.5C 141.758,357.713 140.925,357.047 140,356.5C 139.667,353.833 139.333,351.167 139,348.5C 138.586,348.957 138.086,349.291 137.5,349.5C 136.511,353.107 136.177,356.774 136.5,360.5C 135.178,360.67 134.011,360.337 133,359.5C 132.246,356.361 131.246,353.361 130,350.5C 128.549,357.321 130.382,363.321 135.5,368.5C 136.167,367.167 136.833,365.833 137.5,364.5C 140.005,366.253 142.671,367.753 145.5,369C 149.492,372.039 149.326,374.872 145,377.5C 143.477,375.431 142.643,373.097 142.5,370.5C 140.692,370.491 139.025,370.991 137.5,372C 139.722,378.61 142.889,384.777 147,390.5C 147.494,392.134 147.66,393.801 147.5,395.5C 146.127,395.343 144.793,395.51 143.5,396C 140.794,398.676 137.794,400.842 134.5,402.5C 136.226,400.772 137.559,398.772 138.5,396.5C 140.683,395.15 142.35,393.316 143.5,391C 128.344,365.704 118.011,338.538 112.5,309.5C 109.847,287.809 109.847,266.142 112.5,244.5C 113.43,232.033 116.43,220.033 121.5,208.5C 124.29,204.584 126.29,200.251 127.5,195.5C 127.758,191.56 128.924,187.893 131,184.5C 157.324,136.758 196.491,104.758 248.5,88.5C 251.166,88.067 253.832,87.567 256.5,87C 257.056,86.6174 257.389,86.1174 257.5,85.5C 261.198,85.4476 264.865,85.1143 268.5,84.5C 271.428,84.4349 274.095,83.7682 276.5,82.5C 276.833,82.5 277.167,82.5 277.5,82.5C 287.156,81.9081 296.822,81.5747 306.5,81.5 Z"/></g>
<g><path style="opacity:1" fill="#5c5341" d="M 276.5,82.5 C 274.095,83.7682 271.428,84.4349 268.5,84.5C 270.78,82.7773 273.447,82.1107 276.5,82.5 Z"/></g>
<g><path style="opacity:1" fill="#7d6f5e" d="M 257.5,85.5 C 257.389,86.1174 257.056,86.6174 256.5,87C 253.832,87.567 251.166,88.067 248.5,88.5C 248.611,87.8826 248.944,87.3826 249.5,87C 252.207,86.6049 254.873,86.1049 257.5,85.5 Z"/></g>
<g><path style="opacity:1" fill="#93846f" d="M 340.5,85.5 C 342.786,85.595 344.786,86.2616 346.5,87.5C 343.918,87.9746 341.918,87.3079 340.5,85.5 Z"/></g>
<g><path style="opacity:1" fill="#0f1012" d="M 908.5,130.5 C 908.169,153.006 908.503,175.34 909.5,197.5C 909.174,205.684 909.508,213.684 910.5,221.5C 910.5,227.833 910.5,234.167 910.5,240.5C 937.833,240.5 965.167,240.5 992.5,240.5C 992.5,232.5 992.5,224.5 992.5,216.5C 975.5,216.5 958.5,216.5 941.5,216.5C 939.833,216.5 938.167,216.5 936.5,216.5C 936.5,207.833 936.5,199.167 936.5,190.5C 949.011,190.829 961.345,190.495 973.5,189.5C 976.167,189.5 978.833,189.5 981.5,189.5C 983.167,189.5 984.833,189.5 986.5,189.5C 986.5,181.833 986.5,174.167 986.5,166.5C 969.838,165.983 953.171,165.65 936.5,165.5C 936.5,156.833 936.5,148.167 936.5,139.5C 951.508,139.465 966.508,139.132 981.5,138.5C 987.06,139.134 992.727,140.134 998.5,141.5C 998.5,142.833 998.5,144.167 998.5,145.5C 993.898,145.717 993.898,147.217 998.5,150C 996.751,151.292 994.918,152.458 993,153.5C 991.504,155.45 991.337,157.45 992.5,159.5C 994.232,157.717 995.732,155.717 997,153.5C 997.853,155.125 998.853,155.458 1000,154.5C 1001.9,156.016 1004.06,156.683 1006.5,156.5C 1006.32,158.591 1006.65,160.591 1007.5,162.5C 1008.97,162.723 1010.47,163.056 1012,163.5C 1012.33,160.833 1011.33,160.167 1009,161.5C 1008.5,161 1008,160.5 1007.5,160C 1009.7,153.69 1011.2,147.19 1012,140.5C 1015.52,138.034 1016.02,135.201 1013.5,132C 1014.47,130.796 1015.47,130.296 1016.5,130.5C 1016.02,129.522 1015.36,128.689 1014.5,128C 1018.16,125.68 1021.82,123.846 1025.5,122.5C 1016.42,135.206 1013.92,149.206 1018,164.5C 1023.14,174.973 1031.31,181.807 1042.5,185C 1050.43,187.053 1058.43,188.72 1066.5,190C 1070.24,191.738 1073.41,194.238 1076,197.5C 1078.41,207.011 1075.24,213.678 1066.5,217.5C 1058.7,218.678 1051.04,218.011 1043.5,215.5C 1041.75,209.415 1037.75,205.749 1031.5,204.5C 1030.57,203.432 1030.23,202.099 1030.5,200.5C 1023.23,203.135 1016.56,206.802 1010.5,211.5C 1009.12,214.285 1009.78,216.618 1012.5,218.5C 1020.37,231.018 1031.71,238.351 1046.5,240.5C 1055.66,241.33 1064.99,241.83 1074.5,242C 1073.33,242.419 1072.33,243.085 1071.5,244C 1073.27,244.64 1074.93,244.473 1076.5,243.5C 1075.92,244.931 1075.08,246.264 1074,247.5C 1073.67,246.833 1073.33,246.167 1073,245.5C 1071.8,247.677 1071.3,250.011 1071.5,252.5C 1072.5,252.5 1073.5,252.5 1074.5,252.5C 1075,247.5 1075.34,247.833 1075.5,253.5C 1074.17,253.5 1072.83,253.5 1071.5,253.5C 1071.17,256.167 1070.83,258.833 1070.5,261.5C 1079.75,262.578 1079.75,263.578 1070.5,264.5C 1070.5,265.5 1070.5,266.5 1070.5,267.5C 1081.09,267.432 1091.59,266.765 1102,265.5C 1107.5,266.501 1113,267.668 1118.5,269C 1110.31,269.243 1102.14,269.743 1094,270.5C 1092.89,270.415 1091.89,270.081 1091,269.5C 1081.58,270.32 1072.08,270.82 1062.5,271C 1070.34,271.171 1078.01,271.671 1085.5,272.5C 1069.17,272.5 1052.83,272.5 1036.5,272.5C 1036.5,279.167 1036.5,285.833 1036.5,292.5C 1043.83,292.833 1051.17,293.167 1058.5,293.5C 1058.5,293.833 1058.5,294.167 1058.5,294.5C 1050.83,294.5 1043.17,294.5 1035.5,294.5C 1035.88,287.743 1035.38,281.076 1034,274.5C 1033.33,275.167 1032.67,275.833 1032,276.5C 1031.31,274.432 1031.48,272.432 1032.5,270.5C 1031.5,268.833 1030.17,267.5 1028.5,266.5C 1031.06,262.529 1033.39,262.696 1035.5,267C 1038.87,267.543 1042.2,267.376 1045.5,266.5C 1045.5,265.167 1045.5,263.833 1045.5,262.5C 1042.73,262.22 1040.23,262.887 1038,264.5C 1037,263.5 1036,262.5 1035,261.5C 1031.59,263.11 1030.09,261.944 1030.5,258C 1033.32,251.584 1031.98,250.918 1026.5,256C 1025.21,256.49 1023.87,256.657 1022.5,256.5C 1022.66,259.187 1022.5,261.854 1022,264.5C 1019.37,261.494 1017.37,261.828 1016,265.5C 1015.26,264.426 1014.26,263.759 1013,263.5C 1010.55,264.493 1008.05,264.66 1005.5,264C 1005.4,261.538 1003.73,260.371 1000.5,260.5C 1000.65,261.552 1000.48,262.552 1000,263.5C 999.667,263.167 999.333,262.833 999,262.5C 997.833,263.667 996.667,264.833 995.5,266C 996.624,266.249 997.624,266.749 998.5,267.5C 996.839,275.396 996.173,283.396 996.5,291.5C 992.5,291.833 992.5,292.167 996.5,292.5C 996.326,299.535 996.659,306.535 997.5,313.5C 986.157,314.39 974.824,314.39 963.5,313.5C 960.731,313.529 958.397,314.195 956.5,315.5C 955.514,311.03 955.181,306.363 955.5,301.5C 955.5,292.167 955.5,282.833 955.5,273.5C 956.931,272.22 957.598,270.553 957.5,268.5C 960.68,268.824 961.847,267.49 961,264.5C 959.647,263.315 958.48,261.981 957.5,260.5C 955.007,261.964 952.674,261.797 950.5,260C 951.879,256.808 953.379,253.641 955,250.5C 956.955,251.453 958.622,252.787 960,254.5C 962.105,251.893 962.938,248.893 962.5,245.5C 960.5,245.5 958.5,245.5 956.5,245.5C 956.642,249.223 955.309,250.056 952.5,248C 953.711,247.107 953.711,246.274 952.5,245.5C 951.686,247.766 951.186,250.1 951,252.5C 949.745,251.789 948.579,250.956 947.5,250C 948.833,248.667 948.833,247.333 947.5,246C 945.363,247.441 943.03,247.775 940.5,247C 943.028,248.017 943.028,249.184 940.5,250.5C 941.914,251.624 943.414,252.624 945,253.5C 945.792,255.587 946.959,257.421 948.5,259C 947.672,259.915 946.672,260.581 945.5,261C 946.308,261.308 946.975,261.808 947.5,262.5C 943.25,263.883 938.917,264.883 934.5,265.5C 934.762,266.978 934.429,268.311 933.5,269.5C 930.941,267.048 929.441,264.048 929,260.5C 924.615,264.239 924.448,268.239 928.5,272.5C 929.309,280.99 929.976,289.49 930.5,298C 930.498,324.277 930.498,350.61 930.5,377C 930.167,378.167 929.833,379.333 929.5,380.5C 928.105,364.533 927.271,348.533 927,332.5C 926.085,331.672 925.419,330.672 925,329.5C 923,332.167 921,332.167 919,329.5C 919.222,327.544 920.055,325.71 921.5,324C 920.139,322.416 919.472,320.582 919.5,318.5C 918.178,318.67 917.011,318.337 916,317.5C 915.46,319.135 915.96,320.468 917.5,321.5C 916.877,324.445 916.544,327.445 916.5,330.5C 917.436,340.832 917.936,351.166 918,361.5C 917.71,363.044 917.044,364.377 916,365.5C 915.007,362.692 914.173,359.859 913.5,357C 914.566,355.841 914.233,355.008 912.5,354.5C 912.5,343.5 912.5,332.5 912.5,321.5C 896.167,321.5 879.833,321.5 863.5,321.5C 863.5,327.833 863.5,334.167 863.5,340.5C 866.833,340.5 870.167,340.5 873.5,340.5C 878.64,341.488 883.974,341.821 889.5,341.5C 889.5,346.167 889.5,350.833 889.5,355.5C 888.71,356.794 887.71,357.961 886.5,359C 883.155,359.943 879.822,360.777 876.5,361.5C 870.167,361.5 863.833,361.5 857.5,361.5C 844.669,358.161 837.169,349.827 835,336.5C 832.574,323.504 834.907,311.504 842,300.5C 843.972,298.768 846.139,297.435 848.5,296.5C 855.109,293.372 862.109,291.706 869.5,291.5C 878.832,292.501 886.499,296.668 892.5,304C 893.5,304.667 894.5,304.667 895.5,304C 899.167,301.667 902.833,299.333 906.5,297C 908.325,295.534 908.825,293.701 908,291.5C 899.472,280.485 888.305,273.985 874.5,272C 858.229,269.636 843.229,272.97 829.5,282C 820.366,289.768 815.033,299.601 813.5,311.5C 812.833,312.167 812.167,312.833 811.5,313.5C 811.38,311.266 811.713,309.099 812.5,307C 810.229,303.907 809.062,300.407 809,296.5C 807.598,294.027 806.098,294.027 804.5,296.5C 802.422,294.014 799.755,293.014 796.5,293.5C 796.833,314.844 796.5,336.177 795.5,357.5C 794.27,329.379 794.27,301.379 795.5,273.5C 801.199,275.177 806.866,276.177 812.5,276.5C 813.243,275.092 814.077,273.759 815,272.5C 817.716,273.686 820.049,275.353 822,277.5C 823.563,276.898 823.396,276.065 821.5,275C 822.833,273.667 822.833,272.333 821.5,271C 824.167,269.667 824.167,268.333 821.5,267C 826.2,261.935 831.866,260.435 838.5,262.5C 839.374,264.747 839.708,267.08 839.5,269.5C 840.93,269.421 842.264,269.754 843.5,270.5C 845.84,268.329 848.506,266.662 851.5,265.5C 849.394,264.103 847.727,262.27 846.5,260C 847.337,258.989 847.67,257.822 847.5,256.5C 848.675,256.719 849.675,256.386 850.5,255.5C 849.355,254.109 849.355,252.776 850.5,251.5C 852.753,250.747 854.587,249.414 856,247.5C 856.563,246.275 856.23,245.275 855,244.5C 845.247,246.945 835.413,247.111 825.5,245C 837.066,244.388 837.066,243.221 825.5,241.5C 846.264,244.44 864.431,239.107 880,225.5C 883.331,221.508 886.164,217.175 888.5,212.5C 882.725,207.438 876.391,203.105 869.5,199.5C 855.315,217.578 837.649,221.744 816.5,212C 808.002,206.487 803.169,198.654 802,188.5C 798.07,172.015 801.903,157.849 813.5,146C 817.798,143.018 822.464,140.851 827.5,139.5C 832.13,138.771 836.797,138.437 841.5,138.5C 846.037,138.884 850.371,140.051 854.5,142C 859.345,146.18 864.178,150.347 869,154.5C 874.774,151.696 880.607,149.03 886.5,146.5C 887.614,145.277 887.781,143.944 887,142.5C 881.475,131.641 873.308,123.475 862.5,118C 849.088,113.385 835.421,111.885 821.5,113.5C 821.511,111.983 822.177,110.816 823.5,110C 829.686,107.32 836.019,107.153 842.5,109.5C 838.541,110.327 834.541,110.827 830.5,111C 838.579,111.685 846.579,111.185 854.5,109.5C 854.065,112.613 855.065,113.279 857.5,111.5C 859.697,111.848 861.53,112.848 863,114.5C 865.421,113.039 867.921,111.706 870.5,110.5C 871.667,112.167 872.833,113.833 874,115.5C 876.522,113.819 879.355,112.819 882.5,112.5C 888.924,115.753 895.59,118.419 902.5,120.5C 904.425,120.41 905.592,119.41 906,117.5C 907.617,118.536 907.784,119.703 906.5,121C 907.132,124.27 907.799,127.437 908.5,130.5 Z"/></g>
<g><path style="opacity:1" fill="#d9d9d7" d="M 717.5,139.5 C 711.754,137.608 705.754,137.108 699.5,138C 698.944,138.383 698.611,138.883 698.5,139.5C 694.453,139.355 691.453,141.022 689.5,144.5C 687.139,145.435 684.972,146.768 683,148.5C 679.386,153.06 676.886,158.06 675.5,163.5C 674.778,163.918 674.278,164.584 674,165.5C 673.427,170.326 672.927,175.159 672.5,180C 672.3,182.866 672.967,185.366 674.5,187.5C 675.557,200.198 681.89,208.865 693.5,213.5C 694.058,214.79 695.058,215.623 696.5,216C 705.156,217.906 713.822,217.906 722.5,216C 723.056,215.617 723.389,215.117 723.5,214.5C 730.811,211.519 736.145,206.519 739.5,199.5C 745.833,202.667 752.167,205.833 758.5,209C 760.831,211.79 760.664,214.624 758,217.5C 745.274,234.701 728.108,243.035 706.5,242.5C 680.847,240.987 662.68,228.654 652,205.5C 650.309,200.601 649.143,195.601 648.5,190.5C 648.453,180.484 648.787,170.484 649.5,160.5C 652.536,144.598 660.536,131.765 673.5,122C 689.32,112.497 706.32,109.831 724.5,114C 740.831,118.671 752.498,128.671 759.5,144C 759.241,145.261 758.574,146.261 757.5,147C 751.612,149.956 745.612,152.29 739.5,154C 735.833,150.333 732.167,146.667 728.5,143C 725.107,140.924 721.44,139.758 717.5,139.5 Z"/></g>
<g><path style="opacity:1" fill="#424242" d="M 587.5,114.5 C 581.176,115.025 574.842,115.525 568.5,116C 567.915,117.302 567.249,118.469 566.5,119.5C 566.5,117.5 566.5,115.5 566.5,113.5C 573.687,113.175 580.687,113.509 587.5,114.5 Z"/></g>
<g><path style="opacity:1" fill="#dadad8" d="M 841.5,138.5 C 837.354,137.353 833.02,137.186 828.5,138C 827.944,138.383 827.611,138.883 827.5,139.5C 822.464,140.851 817.798,143.018 813.5,146C 801.903,157.849 798.07,172.015 802,188.5C 803.169,198.654 808.002,206.487 816.5,212C 837.649,221.744 855.315,217.578 869.5,199.5C 876.391,203.105 882.725,207.438 888.5,212.5C 886.164,217.175 883.331,221.508 880,225.5C 864.431,239.107 846.264,244.44 825.5,241.5C 801.029,237.192 785.196,223.192 778,199.5C 777.064,195.886 776.564,192.22 776.5,188.5C 776.35,179.143 776.683,169.809 777.5,160.5C 782.075,140.226 793.742,125.392 812.5,116C 815.797,115.796 818.797,114.963 821.5,113.5C 835.421,111.885 849.088,113.385 862.5,118C 873.308,123.475 881.475,131.641 887,142.5C 887.781,143.944 887.614,145.277 886.5,146.5C 880.607,149.03 874.774,151.696 869,154.5C 864.178,150.347 859.345,146.18 854.5,142C 850.371,140.051 846.037,138.884 841.5,138.5 Z"/></g>
<g><path style="opacity:1" fill="#88898a" d="M 1181.5,115.5 C 1172.86,114.66 1164.19,114.327 1155.5,114.5C 1164.25,111.809 1172.92,112.143 1181.5,115.5 Z"/></g>
<g><path style="opacity:1" fill="#555555" d="M 957.5,114.5 C 969.678,114.172 981.678,114.505 993.5,115.5C 993.167,115.5 992.833,115.5 992.5,115.5C 965.5,115.5 938.5,115.5 911.5,115.5C 910.502,150.663 910.168,185.996 910.5,221.5C 909.508,213.684 909.174,205.684 909.5,197.5C 909.5,169.833 909.5,142.167 909.5,114.5C 925.5,114.5 941.5,114.5 957.5,114.5 Z"/></g>
<g><path style="opacity:1" fill="#d9d9d8" d="M 1062.5,163.5 C 1064.5,165.982 1067.17,166.982 1070.5,166.5C 1094.45,171.965 1104.95,186.965 1102,211.5C 1098.91,224.081 1091.41,232.748 1079.5,237.5C 1068.67,240.059 1057.67,241.059 1046.5,240.5C 1031.71,238.351 1020.37,231.018 1012.5,218.5C 1012.23,216.035 1011.57,213.701 1010.5,211.5C 1016.56,206.802 1023.23,203.135 1030.5,200.5C 1030.23,202.099 1030.57,203.432 1031.5,204.5C 1034.24,209.578 1038.24,213.245 1043.5,215.5C 1045.73,217.446 1048.4,218.613 1051.5,219C 1055.5,219.667 1059.5,219.667 1063.5,219C 1064.74,218.768 1065.74,218.268 1066.5,217.5C 1075.24,213.678 1078.41,207.011 1076,197.5C 1073.41,194.238 1070.24,191.738 1066.5,190C 1058.43,188.72 1050.43,187.053 1042.5,185C 1031.31,181.807 1023.14,174.973 1018,164.5C 1013.92,149.206 1016.42,135.206 1025.5,122.5C 1038.91,113.988 1053.58,111.154 1069.5,114C 1082.7,116.528 1092.53,123.695 1099,135.5C 1099.78,136.944 1099.61,138.277 1098.5,139.5C 1092.5,143.167 1086.5,146.833 1080.5,150.5C 1076.64,139.495 1068.81,134.161 1057,134.5C 1043.67,134.484 1038.67,140.817 1042,153.5C 1047.8,158.83 1054.64,162.163 1062.5,163.5 Z"/></g>
<g><path style="opacity:1" fill="#dadad8" d="M 1155.5,114.5 C 1164.19,114.327 1172.86,114.66 1181.5,115.5C 1192.53,117.93 1201.03,123.93 1207,133.5C 1207.81,135.579 1207.64,137.579 1206.5,139.5C 1203.36,141.473 1200.36,143.64 1197.5,146C 1194.83,147.557 1191.99,148.724 1189,149.5C 1186.69,145.168 1183.52,141.335 1179.5,138C 1177.1,137.256 1174.77,136.423 1172.5,135.5C 1168.75,133.034 1164.75,132.867 1160.5,135C 1159.94,135.383 1159.61,135.883 1159.5,136.5C 1148.18,138.139 1145.01,144.139 1150,154.5C 1159.65,161.608 1170.48,165.774 1182.5,167C 1197.43,171.091 1206.76,180.591 1210.5,195.5C 1210.64,201.536 1210.31,207.536 1209.5,213.5C 1205,229.654 1194.34,238.654 1177.5,240.5C 1168.14,240.687 1158.81,240.354 1149.5,239.5C 1133.97,236.306 1123.3,227.306 1117.5,212.5C 1117.61,211.558 1117.94,210.725 1118.5,210C 1122.67,208.416 1126.34,206.082 1129.5,203C 1131.84,202.163 1134.17,201.33 1136.5,200.5C 1137.17,200.833 1137.83,201.167 1138.5,201.5C 1139.99,206.653 1142.99,210.653 1147.5,213.5C 1149.31,216.407 1151.98,217.741 1155.5,217.5C 1158.55,218.935 1161.88,219.602 1165.5,219.5C 1168.53,219.713 1171.19,219.047 1173.5,217.5C 1177.87,216.606 1181.2,214.272 1183.5,210.5C 1187.5,206.5 1187.5,202.5 1183.5,198.5C 1180.16,193.492 1175.49,190.492 1169.5,189.5C 1167.21,187.733 1164.54,186.733 1161.5,186.5C 1135.19,184.692 1122.35,170.692 1123,144.5C 1124.77,134.783 1129.27,126.616 1136.5,120C 1142.46,116.845 1148.8,115.012 1155.5,114.5 Z"/></g>
<g><path style="opacity:1" fill="#f3f4f2" d="M 911.5,115.5 C 938.5,115.5 965.5,115.5 992.5,115.5C 992.83,122.532 992.497,129.532 991.5,136.5C 990.504,130.202 990.17,123.868 990.5,117.5C 964.167,117.5 937.833,117.5 911.5,117.5C 911.5,116.833 911.5,116.167 911.5,115.5 Z"/></g>
<g><path style="opacity:1" fill="#d8d8d6" d="M 587.5,114.5 C 590.833,114.5 594.167,114.5 597.5,114.5C 609.045,149.632 621.878,184.299 636,218.5C 637.347,224.223 638.847,229.89 640.5,235.5C 640.423,236.75 639.756,237.583 638.5,238C 630.827,237.279 623.161,237.446 615.5,238.5C 613.293,233.867 611.293,229.2 609.5,224.5C 608.992,220.803 608.326,217.136 607.5,213.5C 590.799,212.848 574.466,213.515 558.5,215.5C 555.79,218.6 554.457,222.267 554.5,226.5C 552.93,229.314 551.597,232.314 550.5,235.5C 550.244,237.776 548.91,238.943 546.5,239C 539.174,239.5 531.841,239.666 524.5,239.5C 524.087,233.908 525.587,228.908 529,224.5C 541.19,189.434 553.69,154.434 566.5,119.5C 567.249,118.469 567.915,117.302 568.5,116C 574.842,115.525 581.176,115.025 587.5,114.5 Z"/></g>
<g><path style="opacity:1" fill="#b1b1b0" d="M 992.5,115.5 C 992.833,115.5 993.167,115.5 993.5,115.5C 993.5,122.833 993.5,130.167 993.5,137.5C 974.167,137.5 954.833,137.5 935.5,137.5C 935.389,136.883 935.056,136.383 934.5,136C 952.833,135.667 971.167,135.333 989.5,135C 973.167,134.667 956.833,134.333 940.5,134C 956.497,133.5 972.497,133.333 988.5,133.5C 988.5,128.833 988.5,124.167 988.5,119.5C 963.833,119.5 939.167,119.5 914.5,119.5C 914.5,158.167 914.5,196.833 914.5,235.5C 939.167,235.5 963.833,235.5 988.5,235.5C 988.5,230.5 988.5,225.5 988.5,220.5C 975.496,220.667 962.496,220.5 949.5,220C 962.829,219.5 976.163,219.333 989.5,219.5C 989.34,221.199 989.506,222.866 990,224.5C 990.495,222.527 990.662,220.527 990.5,218.5C 976.656,218.829 962.99,218.496 949.5,217.5C 963.5,217.5 977.5,217.5 991.5,217.5C 991.5,224.833 991.5,232.167 991.5,239.5C 964.833,239.5 938.167,239.5 911.5,239.5C 911.5,198.833 911.5,158.167 911.5,117.5C 937.833,117.5 964.167,117.5 990.5,117.5C 990.17,123.868 990.504,130.202 991.5,136.5C 992.497,129.532 992.83,122.532 992.5,115.5 Z"/></g>
<g><path style="opacity:1" fill="#d1d2cf" d="M 912.5,118.5 C 913.499,157.663 913.832,196.996 913.5,236.5C 938.836,236.333 964.169,236.5 989.5,237C 963.835,237.5 938.169,237.667 912.5,237.5C 912.5,197.833 912.5,158.167 912.5,118.5 Z"/></g>
<g><path style="opacity:1" fill="#28150e" d="M 296.5,119.5 C 296.5,119.167 296.5,118.833 296.5,118.5C 306.172,118.334 315.839,118.5 325.5,119C 330.352,119.713 335.019,121.046 339.5,123C 340.756,123.417 341.423,124.25 341.5,125.5C 336.992,125.133 332.659,124.133 328.5,122.5C 326.723,121.4 324.723,120.566 322.5,120C 318.179,119.501 313.846,119.334 309.5,119.5C 305.167,119.5 300.833,119.5 296.5,119.5 Z"/></g>
<g><path style="opacity:1" fill="#dbdbd9" d="M 935.5,137.5 C 934.206,147.497 934.206,157.497 935.5,167.5C 938.962,168.482 942.629,168.815 946.5,168.5C 958.655,169.495 970.989,169.829 983.5,169.5C 983.5,175.167 983.5,180.833 983.5,186.5C 970.989,186.171 958.655,186.505 946.5,187.5C 942.351,186.92 938.684,187.586 935.5,189.5C 934.615,198.487 934.448,207.487 935,216.5C 937.041,217.423 939.208,217.756 941.5,217.5C 944.167,217.5 946.833,217.5 949.5,217.5C 962.99,218.496 976.656,218.829 990.5,218.5C 990.662,220.527 990.495,222.527 990,224.5C 989.506,222.866 989.34,221.199 989.5,219.5C 976.163,219.333 962.829,219.5 949.5,220C 962.496,220.5 975.496,220.667 988.5,220.5C 988.5,225.5 988.5,230.5 988.5,235.5C 963.833,235.5 939.167,235.5 914.5,235.5C 914.5,196.833 914.5,158.167 914.5,119.5C 939.167,119.5 963.833,119.5 988.5,119.5C 988.5,124.167 988.5,128.833 988.5,133.5C 972.497,133.333 956.497,133.5 940.5,134C 956.833,134.333 973.167,134.667 989.5,135C 971.167,135.333 952.833,135.667 934.5,136C 935.056,136.383 935.389,136.883 935.5,137.5 Z"/></g>
<g><path style="opacity:1" fill="#7d5336" d="M 296.5,118.5 C 296.5,118.833 296.5,119.167 296.5,119.5C 290.158,119.334 283.825,119.5 277.5,120C 275.509,120.374 273.842,121.207 272.5,122.5C 268.167,123.167 263.833,123.833 259.5,124.5C 259.953,123.542 260.619,122.708 261.5,122C 272.964,118.953 284.631,117.787 296.5,118.5 Z"/></g>
<g><path style="opacity:1" fill="#724a2f" d="M 309.5,119.5 C 313.846,119.334 318.179,119.501 322.5,120C 324.723,120.566 326.723,121.4 328.5,122.5C 322.043,121.429 315.71,120.429 309.5,119.5 Z"/></g>
<g><path style="opacity:1" fill="#f0834a" d="M 380.5,146.5 C 383.94,148.055 387.273,149.888 390.5,152C 417.199,174.526 435.533,202.692 445.5,236.5C 447.813,245.667 449.146,255.001 449.5,264.5C 449.667,276.171 449.5,287.838 449,299.5C 447.681,301.287 446.848,303.287 446.5,305.5C 444.529,314.182 442.362,322.848 440,331.5C 436.631,338.853 433.298,346.186 430,353.5C 425.488,361.869 420.488,369.869 415,377.5C 413.556,379.155 411.722,379.822 409.5,379.5C 410.244,382.95 408.91,384.616 405.5,384.5C 405.5,385.833 405.5,387.167 405.5,388.5C 404.5,388.5 403.5,388.5 402.5,388.5C 402.762,389.978 402.429,391.311 401.5,392.5C 376.445,416.272 346.612,429.939 312,433.5C 307.99,431.865 303.823,431.198 299.5,431.5C 299.389,430.883 299.056,430.383 298.5,430C 303.365,429.361 303.698,427.695 299.5,425C 300.67,422.815 301.836,420.649 303,418.5C 304.667,419.167 306.333,419.833 308,420.5C 308.5,419.5 309,418.5 309.5,417.5C 306.973,415.146 304.806,412.479 303,409.5C 301.748,411.001 300.748,412.668 300,414.5C 298.175,409.244 297.675,403.911 298.5,398.5C 297.5,397.5 296.5,396.5 295.5,395.5C 293.249,396.695 290.915,397.695 288.5,398.5C 287.167,396.5 285.5,394.833 283.5,393.5C 282.5,394.833 281.5,394.833 280.5,393.5C 278.577,395.176 276.244,395.51 273.5,394.5C 273.833,392.5 274.167,390.5 274.5,388.5C 271.203,388.671 270.869,388.005 273.5,386.5C 271.887,385.573 270.221,384.739 268.5,384C 269.094,383.536 269.761,383.369 270.5,383.5C 286.401,386.791 302.401,387.291 318.5,385C 321.476,384.295 324.142,383.129 326.5,381.5C 328.042,380.699 329.708,380.366 331.5,380.5C 333.97,380.346 335.97,379.346 337.5,377.5C 363.418,366.582 382.085,348.248 393.5,322.5C 394.222,322.918 394.722,323.584 395,324.5C 406.227,299.233 408.227,273.233 401,246.5C 397.966,238.446 394.966,230.446 392,222.5C 389,218.5 386,214.5 383,210.5C 382.333,209.167 382.333,207.833 383,206.5C 384.949,206.537 386.782,206.037 388.5,205C 386.656,203.818 384.823,202.651 383,201.5C 381.395,202.101 380.062,203.101 379,204.5C 377.607,201.875 376.441,201.875 375.5,204.5C 361.374,188.763 344.041,178.097 323.5,172.5C 323.5,171.5 323.5,170.5 323.5,169.5C 307.533,166.22 291.533,165.887 275.5,168.5C 275.5,169.5 275.5,170.5 275.5,171.5C 270.907,172.064 266.574,173.397 262.5,175.5C 251.111,179.064 240.778,184.564 231.5,192C 229.859,193.129 228.859,194.629 228.5,196.5C 213.943,209.607 203.943,225.607 198.5,244.5C 196.371,249.875 194.871,255.541 194,261.5C 193.333,271.167 193.333,280.833 194,290.5C 194.098,293.522 194.932,296.189 196.5,298.5C 199.582,317.437 206.915,334.437 218.5,349.5C 217.175,350.953 216.342,350.619 216,348.5C 214.637,349.893 213.804,351.559 213.5,353.5C 214.626,356.371 215.793,359.038 217,361.5C 216.667,361.833 216.333,362.167 216,362.5C 214.226,360.06 211.892,358.394 209,357.5C 205.463,358.643 204.296,360.809 205.5,364C 202.211,364.882 198.877,365.548 195.5,366C 192.633,370.591 192.966,374.924 196.5,379C 195.234,379.309 194.067,379.809 193,380.5C 192,379.5 191,378.5 190,377.5C 187.89,380.18 186.057,382.846 184.5,385.5C 180.054,378.913 175.387,372.579 170.5,366.5C 166.947,359.063 163.114,351.729 159,344.5C 157.95,339.419 156.116,334.752 153.5,330.5C 146.779,306.622 144.279,282.289 146,257.5C 148.516,245.436 151.349,233.436 154.5,221.5C 155.151,222.091 155.818,222.757 156.5,223.5C 160.106,212.952 165.273,203.285 172,194.5C 172.29,192.048 172.956,189.715 174,187.5C 180,180.167 186,172.833 192,165.5C 195.833,162.333 199.667,159.167 203.5,156C 205.79,154.223 207.457,152.056 208.5,149.5C 210.379,146.885 212.712,144.719 215.5,143C 226.865,136.432 238.532,130.432 250.5,125C 253.482,124.502 256.482,124.335 259.5,124.5C 263.833,123.833 268.167,123.167 272.5,122.5C 302.079,118.737 330.413,122.904 357.5,135C 365.251,138.875 372.918,142.709 380.5,146.5 Z"/></g>
<g><path style="opacity:1" fill="#ca8553" d="M 296.5,119.5 C 300.833,119.5 305.167,119.5 309.5,119.5C 315.71,120.429 322.043,121.429 328.5,122.5C 332.659,124.133 336.992,125.133 341.5,125.5C 352.916,130.373 364.25,135.54 375.5,141C 377.373,142.704 379.04,144.537 380.5,146.5C 372.918,142.709 365.251,138.875 357.5,135C 330.413,122.904 302.079,118.737 272.5,122.5C 273.842,121.207 275.509,120.374 277.5,120C 283.825,119.5 290.158,119.334 296.5,119.5 Z"/></g>
<g><path style="opacity:1" fill="#545454" d="M 1172.5,135.5 C 1168.1,135.294 1163.77,135.627 1159.5,136.5C 1159.61,135.883 1159.94,135.383 1160.5,135C 1164.75,132.867 1168.75,133.034 1172.5,135.5 Z"/></g>
<g><path style="opacity:1" fill="#9c9c9b" d="M 841.5,138.5 C 836.797,138.437 832.13,138.771 827.5,139.5C 827.611,138.883 827.944,138.383 828.5,138C 833.02,137.186 837.354,137.353 841.5,138.5 Z"/></g>
<g><path style="opacity:1" fill="#888888" d="M 717.5,139.5 C 711.167,139.5 704.833,139.5 698.5,139.5C 698.611,138.883 698.944,138.383 699.5,138C 705.754,137.108 711.754,137.608 717.5,139.5 Z"/></g>
<g><path style="opacity:1" fill="#5d5e5d" d="M 935.5,137.5 C 954.833,137.5 974.167,137.5 993.5,137.5C 989.702,138.483 985.702,138.817 981.5,138.5C 966.508,139.132 951.508,139.465 936.5,139.5C 936.5,148.167 936.5,156.833 936.5,165.5C 953.171,165.65 969.838,165.983 986.5,166.5C 986.5,174.167 986.5,181.833 986.5,189.5C 984.833,189.5 983.167,189.5 981.5,189.5C 982.568,188.566 983.901,188.232 985.5,188.5C 985.5,181.5 985.5,174.5 985.5,167.5C 968.833,167.5 952.167,167.5 935.5,167.5C 934.206,157.497 934.206,147.497 935.5,137.5 Z"/></g>
<g><path style="opacity:1" fill="#595a5a" d="M 698.5,139.5 C 695.669,141.417 692.669,143.083 689.5,144.5C 691.453,141.022 694.453,139.355 698.5,139.5 Z"/></g>
<g><path style="opacity:1" fill="#d6c5a9" d="M 430.5,117.5 C 444.32,133.777 455.653,151.777 464.5,171.5C 468.095,180.285 471.095,189.285 473.5,198.5C 473.5,199.167 473.5,199.833 473.5,200.5C 469.304,191.105 464.804,181.772 460,172.5C 454.722,164.061 448.889,156.061 442.5,148.5C 442.351,147.448 442.517,146.448 443,145.5C 444.878,147.043 446.378,148.876 447.5,151C 448.725,151.563 449.725,151.23 450.5,150C 447.847,146.529 445.847,142.696 444.5,138.5C 443.675,137.614 442.675,137.281 441.5,137.5C 441.071,133.976 439.571,130.976 437,128.5C 436.138,130.087 435.471,131.754 435,133.5C 433.989,132.663 432.822,132.33 431.5,132.5C 431.549,129.901 432.549,127.734 434.5,126C 432.5,123.333 430.5,120.667 428.5,118C 429.094,117.536 429.761,117.369 430.5,117.5 Z"/></g>
<g><path style="opacity:1" fill="#121315" d="M 597.5,188.5 C 588.646,190.304 579.646,190.971 570.5,190.5C 569.5,190.5 568.5,190.5 567.5,190.5C 570.977,174.93 576.143,159.93 583,145.5C 589.336,159.341 594.169,173.674 597.5,188.5 Z"/></g>
<g><path style="opacity:1" fill="#6c6c6d" d="M 1062.5,163.5 C 1065.83,163.018 1068.5,164.018 1070.5,166.5C 1067.17,166.982 1064.5,165.982 1062.5,163.5 Z"/></g>
<g><path style="opacity:1" fill="#ba7e4f" d="M 208.5,149.5 C 207.457,152.056 205.79,154.223 203.5,156C 199.667,159.167 195.833,162.333 192,165.5C 186,172.833 180,180.167 174,187.5C 172.956,189.715 172.29,192.048 172,194.5C 165.273,203.285 160.106,212.952 156.5,223.5C 155.818,222.757 155.151,222.091 154.5,221.5C 156.914,218.191 158.58,214.524 159.5,210.5C 162.027,204.443 164.86,198.443 168,192.5C 173.159,186.183 177.826,179.516 182,172.5C 188.833,165.667 195.667,158.833 202.5,152C 204.641,151.427 206.641,150.594 208.5,149.5 Z"/></g>
<g><path style="opacity:1" fill="#e08f57" d="M 323.5,172.5 C 318.659,170.848 313.659,170.182 308.5,170.5C 299.343,169.342 290.009,169.176 280.5,170C 278.942,170.21 277.609,170.71 276.5,171.5C 276.167,171.5 275.833,171.5 275.5,171.5C 275.5,170.5 275.5,169.5 275.5,168.5C 291.533,165.887 307.533,166.22 323.5,169.5C 323.5,170.5 323.5,171.5 323.5,172.5 Z"/></g>
<g><path style="opacity:1" fill="#2d2e2f" d="M 957.5,114.5 C 941.5,114.5 925.5,114.5 909.5,114.5C 909.5,142.167 909.5,169.833 909.5,197.5C 908.503,175.34 908.169,153.006 908.5,130.5C 908.5,124.833 908.5,119.167 908.5,113.5C 925.009,113.17 941.342,113.504 957.5,114.5 Z"/></g>
<g><path style="opacity:1" fill="#9d9d9d" d="M 935.5,167.5 C 952.167,167.5 968.833,167.5 985.5,167.5C 985.5,174.5 985.5,181.5 985.5,188.5C 983.901,188.232 982.568,188.566 981.5,189.5C 978.833,189.5 976.167,189.5 973.5,189.5C 960.833,189.5 948.167,189.5 935.5,189.5C 938.684,187.586 942.351,186.92 946.5,187.5C 959.167,187.5 971.833,187.5 984.5,187.5C 984.5,181.167 984.5,174.833 984.5,168.5C 971.833,168.5 959.167,168.5 946.5,168.5C 942.629,168.815 938.962,168.482 935.5,167.5 Z"/></g>
<g><path style="opacity:1" fill="#5f371f" d="M 308.5,170.5 C 297.81,170.321 287.143,170.655 276.5,171.5C 277.609,170.71 278.942,170.21 280.5,170C 290.009,169.176 299.343,169.342 308.5,170.5 Z"/></g>
<g><path style="opacity:1" fill="#0c0d10" d="M 308.5,170.5 C 313.659,170.182 318.659,170.848 323.5,172.5C 344.041,178.097 361.374,188.763 375.5,204.5C 382.384,212.721 388.051,221.721 392.5,231.5C 394.077,240.735 396.577,249.735 400,258.5C 401.036,265.799 401.536,273.132 401.5,280.5C 401.5,284.5 401.5,288.5 401.5,292.5C 399.975,298.759 398.308,305.092 396.5,311.5C 395.964,315.314 394.964,318.981 393.5,322.5C 382.085,348.248 363.418,366.582 337.5,377.5C 334.911,377.461 332.911,378.461 331.5,380.5C 329.708,380.366 328.042,380.699 326.5,381.5C 312.996,384.386 299.33,385.22 285.5,384C 277.885,382.177 270.218,380.677 262.5,379.5C 245.413,373.085 230.746,363.085 218.5,349.5C 206.915,334.437 199.582,317.437 196.5,298.5C 194.712,280.389 195.378,262.389 198.5,244.5C 203.943,225.607 213.943,209.607 228.5,196.5C 236.409,194.87 242.742,190.703 247.5,184C 253.464,182.69 258.464,179.856 262.5,175.5C 266.574,173.397 270.907,172.064 275.5,171.5C 275.833,171.5 276.167,171.5 276.5,171.5C 287.143,170.655 297.81,170.321 308.5,170.5 Z"/></g>
<g><path style="opacity:1" fill="#888888" d="M 777.5,160.5 C 776.683,169.809 776.35,179.143 776.5,188.5C 775.217,185.42 774.55,182.086 774.5,178.5C 774.718,172.217 775.718,166.217 777.5,160.5 Z"/></g>
<g><path style="opacity:1" fill="#939493" d="M 649.5,160.5 C 648.787,170.484 648.453,180.484 648.5,190.5C 647.834,186.681 647.501,182.681 647.5,178.5C 647.333,172.26 648,166.26 649.5,160.5 Z"/></g>
<g><path style="opacity:1" fill="#535454" d="M 675.5,163.5 C 674.677,171.471 674.344,179.471 674.5,187.5C 672.967,185.366 672.3,182.866 672.5,180C 672.927,175.159 673.427,170.326 674,165.5C 674.278,164.584 674.778,163.918 675.5,163.5 Z"/></g>
<g><path style="opacity:1" fill="#371f13" d="M 262.5,175.5 C 258.464,179.856 253.464,182.69 247.5,184C 242.742,190.703 236.409,194.87 228.5,196.5C 228.859,194.629 229.859,193.129 231.5,192C 240.778,184.564 251.111,179.064 262.5,175.5 Z"/></g>
<g><path style="opacity:1" fill="#bcbcbb" d="M 946.5,168.5 C 959.167,168.5 971.833,168.5 984.5,168.5C 984.5,174.833 984.5,181.167 984.5,187.5C 971.833,187.5 959.167,187.5 946.5,187.5C 958.655,186.505 970.989,186.171 983.5,186.5C 983.5,180.833 983.5,175.167 983.5,169.5C 970.989,169.829 958.655,169.495 946.5,168.5 Z"/></g>
<g><path style="opacity:1" fill="#5a5a5b" d="M 1161.5,186.5 C 1164.54,186.733 1167.21,187.733 1169.5,189.5C 1166.35,189.585 1163.68,188.585 1161.5,186.5 Z"/></g>
<g><path style="opacity:1" fill="#888887" d="M 597.5,188.5 C 599.104,189.287 599.771,190.62 599.5,192.5C 589.607,192.905 579.941,192.239 570.5,190.5C 579.646,190.971 588.646,190.304 597.5,188.5 Z"/></g>
<g><path style="opacity:1" fill="#55514b" d="M 473.5,198.5 C 474.79,199.058 475.623,200.058 476,201.5C 476.338,210.316 475.505,209.982 473.5,200.5C 473.5,199.833 473.5,199.167 473.5,198.5 Z"/></g>
<g><path style="opacity:1" fill="#7a7b7b" d="M 1183.5,198.5 C 1187.5,202.5 1187.5,206.5 1183.5,210.5C 1183.5,206.5 1183.5,202.5 1183.5,198.5 Z"/></g>
<g><path style="opacity:1" fill="#524a3b" d="M 127.5,195.5 C 126.29,200.251 124.29,204.584 121.5,208.5C 122.18,203.478 124.18,199.144 127.5,195.5 Z"/></g>
<g><path style="opacity:1" fill="#5b5b5c" d="M 1210.5,195.5 C 1211.16,197.81 1211.5,200.31 1211.5,203C 1211.7,206.805 1211.03,210.305 1209.5,213.5C 1210.31,207.536 1210.64,201.536 1210.5,195.5 Z"/></g>
<g><path style="opacity:1" fill="#4e4e4e" d="M 935.5,189.5 C 948.167,189.5 960.833,189.5 973.5,189.5C 961.345,190.495 949.011,190.829 936.5,190.5C 936.5,199.167 936.5,207.833 936.5,216.5C 938.167,216.5 939.833,216.5 941.5,216.5C 941.5,216.833 941.5,217.167 941.5,217.5C 939.208,217.756 937.041,217.423 935,216.5C 934.448,207.487 934.615,198.487 935.5,189.5 Z"/></g>
<g><path style="opacity:1" fill="#2f2f30" d="M 1031.5,204.5 C 1037.75,205.749 1041.75,209.415 1043.5,215.5C 1038.24,213.245 1034.24,209.578 1031.5,204.5 Z"/></g>
<g><path style="opacity:1" fill="#6d6e6d" d="M 1010.5,211.5 C 1011.57,213.701 1012.23,216.035 1012.5,218.5C 1009.78,216.618 1009.12,214.285 1010.5,211.5 Z"/></g>
<g><path style="opacity:1" fill="#343434" d="M 609.5,224.5 C 608.504,224.586 607.671,224.252 607,223.5C 606.774,220.905 606.274,218.405 605.5,216C 589.837,215.5 574.17,215.333 558.5,215.5C 574.466,213.515 590.799,212.848 607.5,213.5C 608.326,217.136 608.992,220.803 609.5,224.5 Z"/></g>
<g><path style="opacity:1" fill="#6d6d6e" d="M 1147.5,213.5 C 1150.44,214.472 1153.1,215.805 1155.5,217.5C 1151.98,217.741 1149.31,216.407 1147.5,213.5 Z"/></g>
<g><path style="opacity:1" fill="#505150" d="M 693.5,213.5 C 703.387,215.808 713.387,216.142 723.5,214.5C 723.389,215.117 723.056,215.617 722.5,216C 713.822,217.906 705.156,217.906 696.5,216C 695.058,215.623 694.058,214.79 693.5,213.5 Z"/></g>
<g><path style="opacity:1" fill="#585959" d="M 1155.5,217.5 C 1161.5,217.5 1167.5,217.5 1173.5,217.5C 1171.19,219.047 1168.53,219.713 1165.5,219.5C 1161.88,219.602 1158.55,218.935 1155.5,217.5 Z"/></g>
<g><path style="opacity:1" fill="#424242" d="M 1043.5,215.5 C 1051.04,218.011 1058.7,218.678 1066.5,217.5C 1065.74,218.268 1064.74,218.768 1063.5,219C 1059.5,219.667 1055.5,219.667 1051.5,219C 1048.4,218.613 1045.73,217.446 1043.5,215.5 Z"/></g>
<g><path style="opacity:1" fill="#676768" d="M 554.5,226.5 C 554.691,230.288 553.358,233.288 550.5,235.5C 551.597,232.314 552.93,229.314 554.5,226.5 Z"/></g>
<g><path style="opacity:1" fill="#d4c8b0" d="M 41.5,257.5 C 40.8333,269.167 40.1667,280.833 39.5,292.5C 37.9427,275.116 38.276,257.783 40.5,240.5C 41.2679,239.737 41.7679,238.737 42,237.5C 42.0475,244.156 41.8809,250.822 41.5,257.5 Z"/></g>
<g><path style="opacity:1" fill="#afafaf" d="M 640.5,235.5 C 641.434,236.568 641.768,237.901 641.5,239.5C 632.651,239.826 623.984,239.493 615.5,238.5C 623.161,237.446 630.827,237.279 638.5,238C 639.756,237.583 640.423,236.75 640.5,235.5 Z"/></g>
<g><path style="opacity:1" fill="#6e6f6f" d="M 911.5,115.5 C 911.5,116.167 911.5,116.833 911.5,117.5C 911.5,158.167 911.5,198.833 911.5,239.5C 938.167,239.5 964.833,239.5 991.5,239.5C 991.5,232.167 991.5,224.833 991.5,217.5C 977.5,217.5 963.5,217.5 949.5,217.5C 946.833,217.5 944.167,217.5 941.5,217.5C 941.5,217.167 941.5,216.833 941.5,216.5C 958.5,216.5 975.5,216.5 992.5,216.5C 992.5,224.5 992.5,232.5 992.5,240.5C 965.167,240.5 937.833,240.5 910.5,240.5C 910.5,234.167 910.5,227.833 910.5,221.5C 910.168,185.996 910.502,150.663 911.5,115.5 Z"/></g>
<g><path style="opacity:1" fill="#383838" d="M 1079.5,237.5 C 1077.62,239.053 1076.62,241.053 1076.5,243.5C 1074.93,244.473 1073.27,244.64 1071.5,244C 1072.33,243.085 1073.33,242.419 1074.5,242C 1064.99,241.83 1055.66,241.33 1046.5,240.5C 1057.67,241.059 1068.67,240.059 1079.5,237.5 Z"/></g>
<g><path style="opacity:1" fill="#532d18" d="M 392.5,231.5 C 401.006,246.873 404.006,263.206 401.5,280.5C 401.536,273.132 401.036,265.799 400,258.5C 396.577,249.735 394.077,240.735 392.5,231.5 Z"/></g>
<g><path style="opacity:1" fill="#626363" d="M 1149.5,239.5 C 1158.81,240.354 1168.14,240.687 1177.5,240.5C 1173.68,241.166 1169.68,241.499 1165.5,241.5C 1159.9,241.724 1154.57,241.057 1149.5,239.5 Z"/></g>
<g><path style="opacity:1" fill="#d78953" d="M 393.5,322.5 C 394.964,318.981 395.964,315.314 396.5,311.5C 400.167,305.838 401.834,299.505 401.5,292.5C 401.5,288.5 401.5,284.5 401.5,280.5C 404.006,263.206 401.006,246.873 392.5,231.5C 388.051,221.721 382.384,212.721 375.5,204.5C 376.441,201.875 377.607,201.875 379,204.5C 380.062,203.101 381.395,202.101 383,201.5C 384.823,202.651 386.656,203.818 388.5,205C 386.782,206.037 384.949,206.537 383,206.5C 382.333,207.833 382.333,209.167 383,210.5C 386,214.5 389,218.5 392,222.5C 394.966,230.446 397.966,238.446 401,246.5C 408.227,273.233 406.227,299.233 395,324.5C 394.722,323.584 394.222,322.918 393.5,322.5 Z"/></g>
<g><path style="opacity:1" fill="#26150d" d="M 159.5,210.5 C 158.58,214.524 156.914,218.191 154.5,221.5C 151.349,233.436 148.516,245.436 146,257.5C 144.279,282.289 146.779,306.622 153.5,330.5C 151.716,329.426 150.549,327.76 150,325.5C 139.733,287.15 141.733,249.483 156,212.5C 156.816,211.177 157.983,210.511 159.5,210.5 Z"/></g>
<g><path style="opacity:1" fill="#532f18" d="M 198.5,244.5 C 195.378,262.389 194.712,280.389 196.5,298.5C 194.932,296.189 194.098,293.522 194,290.5C 193.333,280.833 193.333,271.167 194,261.5C 194.871,255.541 196.371,249.875 198.5,244.5 Z"/></g>
<g><path style="opacity:1" fill="#857a67" d="M 112.5,244.5 C 109.847,266.142 109.847,287.809 112.5,309.5C 111.833,308.833 111.167,308.167 110.5,307.5C 109.387,289.525 109.221,271.525 110,253.5C 110.406,250.258 111.239,247.258 112.5,244.5 Z"/></g>
<g><path style="opacity:1" fill="#d9d9d7" d="M 737.5,300.5 C 733.84,302.345 731.506,301.345 730.5,297.5C 728.661,296.492 727.328,294.992 726.5,293C 724.192,292.009 721.859,291.176 719.5,290.5C 715.833,287.833 712.167,287.833 708.5,290.5C 699.471,293.05 696.971,298.717 701,307.5C 704.081,310.293 707.581,312.46 711.5,314C 720.162,316.664 728.829,319.33 737.5,322C 742.667,325.167 746.833,329.333 750,334.5C 750.483,335.448 750.649,336.448 750.5,337.5C 751.887,344.421 752.553,351.421 752.5,358.5C 750.311,368.191 744.644,375.025 735.5,379C 710.108,389.977 689.608,384.143 674,361.5C 673.104,358.975 673.604,356.808 675.5,355C 679.781,352.027 684.447,349.86 689.5,348.5C 692.223,352.72 695.556,356.553 699.5,360C 701.407,361.122 703.407,361.955 705.5,362.5C 710.167,365.167 714.833,365.167 719.5,362.5C 728.275,360.615 731.775,355.281 730,346.5C 724.764,338.966 717.597,335.299 708.5,335.5C 706.562,333.837 704.228,333.171 701.5,333.5C 691.481,331.173 684.147,325.507 679.5,316.5C 678.698,309.196 678.365,301.862 678.5,294.5C 678.838,292.146 679.338,289.813 680,287.5C 683.536,284.299 686.703,280.799 689.5,277C 704.88,268.839 720.547,268.506 736.5,276C 743.657,280.318 748.324,286.485 750.5,294.5C 745.783,295.692 741.45,297.692 737.5,300.5 Z"/></g>
<g><path style="opacity:1" fill="#dadad8" d="M 1157.5,271.5 C 1169.69,270.19 1181.36,272.023 1192.5,277C 1196.37,280.534 1199.87,284.367 1203,288.5C 1203.74,290.441 1203.58,292.274 1202.5,294C 1197.01,296.579 1191.67,299.412 1186.5,302.5C 1181.72,292.278 1173.72,288.111 1162.5,290C 1153.21,293.556 1150.88,299.889 1155.5,309C 1159.71,311.274 1164.05,313.274 1168.5,315C 1176.78,316.871 1184.78,319.538 1192.5,323C 1204.88,332.116 1209.38,344.283 1206,359.5C 1202.8,371.198 1195.3,378.198 1183.5,380.5C 1179.88,380.899 1176.55,381.899 1173.5,383.5C 1168.83,383.5 1164.17,383.5 1159.5,383.5C 1156.5,381.723 1153.16,380.723 1149.5,380.5C 1145.86,379.85 1142.53,378.35 1139.5,376C 1135.3,372.133 1131.47,367.967 1128,363.5C 1126.63,361.305 1126.29,358.971 1127,356.5C 1129.44,354.699 1131.94,353.032 1134.5,351.5C 1136.89,350.702 1139.22,349.702 1141.5,348.5C 1142.85,349.524 1144.19,350.524 1145.5,351.5C 1147.12,354.567 1149.12,357.401 1151.5,360C 1153.35,361.128 1155.35,361.628 1157.5,361.5C 1164.17,365.5 1170.83,365.5 1177.5,361.5C 1179.77,360.559 1181.77,359.226 1183.5,357.5C 1187.5,353.167 1187.5,348.833 1183.5,344.5C 1181.6,342.204 1179.27,340.371 1176.5,339C 1165.08,336.306 1153.92,332.806 1143,328.5C 1140.36,325.855 1137.69,323.188 1135,320.5C 1133.66,317.978 1132.83,315.311 1132.5,312.5C 1132.5,305.5 1132.5,298.5 1132.5,291.5C 1134.78,283.619 1139.78,278.285 1147.5,275.5C 1150.99,274.342 1154.32,273.009 1157.5,271.5 Z"/></g>
<g><path style="opacity:1" fill="#663f27" d="M 449.5,264.5 C 450.801,268.937 451.467,273.603 451.5,278.5C 450.998,288.199 450.165,297.865 449,307.5C 448.8,309.32 447.966,310.653 446.5,311.5C 447.573,309.347 447.573,307.347 446.5,305.5C 446.848,303.287 447.681,301.287 449,299.5C 449.5,287.838 449.667,276.171 449.5,264.5 Z"/></g>
<g><path style="opacity:1" fill="#dbdad9" d="M 869.5,291.5 C 864.622,290.31 859.622,290.477 854.5,292C 851.771,292.566 849.771,294.066 848.5,296.5C 846.139,297.435 843.972,298.768 842,300.5C 834.907,311.504 832.574,323.504 835,336.5C 837.169,349.827 844.669,358.161 857.5,361.5C 860.186,362.991 863.186,363.657 866.5,363.5C 870.117,363.602 873.45,362.935 876.5,361.5C 879.822,360.777 883.155,359.943 886.5,359C 887.71,357.961 888.71,356.794 889.5,355.5C 890.461,353.735 890.795,351.735 890.5,349.5C 891.479,346.375 891.813,343.042 891.5,339.5C 882.5,339.5 873.5,339.5 864.5,339.5C 864.5,333.833 864.5,328.167 864.5,322.5C 880.167,322.5 895.833,322.5 911.5,322.5C 911.816,337.245 911.483,351.912 910.5,366.5C 902.158,374.671 892.158,379.671 880.5,381.5C 868.485,381.576 856.485,381.243 844.5,380.5C 830.476,374.141 820.476,363.808 814.5,349.5C 814.384,346.14 814.051,342.807 813.5,339.5C 812.198,330.174 812.198,320.84 813.5,311.5C 815.033,299.601 820.366,289.768 829.5,282C 843.229,272.97 858.229,269.636 874.5,272C 888.305,273.985 899.472,280.485 908,291.5C 908.825,293.701 908.325,295.534 906.5,297C 902.833,299.333 899.167,301.667 895.5,304C 894.5,304.667 893.5,304.667 892.5,304C 886.499,296.668 878.832,292.501 869.5,291.5 Z"/></g>
<g><path style="opacity:1" fill="#7b7c7b" d="M 1085.5,272.5 C 1095.83,272.5 1106.17,272.5 1116.5,272.5C 1116.5,279.5 1116.5,286.5 1116.5,293.5C 1107.17,293.5 1097.83,293.5 1088.5,293.5C 1088.83,323.338 1088.5,353.005 1087.5,382.5C 1084.17,382.5 1080.83,382.5 1077.5,382.5C 1077.5,382.167 1077.5,381.833 1077.5,381.5C 1080.83,381.5 1084.17,381.5 1087.5,381.5C 1087.5,359.5 1087.5,337.5 1087.5,315.5C 1087.5,307.833 1087.5,300.167 1087.5,292.5C 1091.21,292.577 1094.88,292.244 1098.5,291.5C 1104.17,291.5 1109.83,291.5 1115.5,291.5C 1115.5,285.5 1115.5,279.5 1115.5,273.5C 1089.5,273.5 1063.5,273.5 1037.5,273.5C 1037.5,279.5 1037.5,285.5 1037.5,291.5C 1043.5,291.5 1049.5,291.5 1055.5,291.5C 1059.44,291.207 1063.27,291.54 1067,292.5C 1067.5,321.831 1067.67,351.165 1067.5,380.5C 1066.83,360.833 1066.17,341.167 1065.5,321.5C 1065.5,312.167 1065.5,302.833 1065.5,293.5C 1063.17,293.5 1060.83,293.5 1058.5,293.5C 1051.17,293.167 1043.83,292.833 1036.5,292.5C 1036.5,285.833 1036.5,279.167 1036.5,272.5C 1052.83,272.5 1069.17,272.5 1085.5,272.5 Z"/></g>
<g><path style="opacity:1" fill="#888887" d="M 1157.5,271.5 C 1154.32,273.009 1150.99,274.342 1147.5,275.5C 1150.1,272.54 1153.43,271.206 1157.5,271.5 Z"/></g>
<g><path style="opacity:1" fill="#f1f1ef" d="M 579.5,273.5 C 579.5,274.167 579.167,274.5 578.5,274.5C 574.5,274.5 570.5,274.5 566.5,274.5C 566.5,309.833 566.5,345.167 566.5,380.5C 565.502,345.004 565.168,309.337 565.5,273.5C 570.167,273.5 574.833,273.5 579.5,273.5 Z"/></g>
<g><path style="opacity:1" fill="#dbdbd9" d="M 579.5,273.5 C 581.5,273.5 583.5,273.5 585.5,273.5C 587.433,275.937 589.6,278.271 592,280.5C 604.354,301.889 617.187,322.889 630.5,343.5C 631.122,345.335 632.456,346.502 634.5,347C 632.068,348.087 632.402,348.587 635.5,348.5C 635.5,324.5 635.5,300.5 635.5,276.5C 641.167,276.5 646.833,276.5 652.5,276.5C 652.5,310.833 652.5,345.167 652.5,379.5C 647.405,379.221 642.405,379.555 637.5,380.5C 635.833,380.5 634.167,380.5 632.5,380.5C 623.431,366.912 614.931,352.912 607,338.5C 599.915,330.008 594.082,320.674 589.5,310.5C 588.675,309.614 587.675,309.281 586.5,309.5C 585.596,310.209 585.263,311.209 585.5,312.5C 583.511,334.475 582.844,356.808 583.5,379.5C 583.167,379.5 582.833,379.5 582.5,379.5C 577.5,379.5 572.5,379.5 567.5,379.5C 567.5,344.833 567.5,310.167 567.5,275.5C 571.371,275.815 575.038,275.482 578.5,274.5C 579.167,274.5 579.5,274.167 579.5,273.5 Z"/></g>
<g><path style="opacity:1" fill="#7c7c7e" d="M 791.5,273.5 C 791.167,273.5 790.833,273.5 790.5,273.5C 784.167,273.5 777.833,273.5 771.5,273.5C 771.5,309.167 771.5,344.833 771.5,380.5C 771.5,380.833 771.5,381.167 771.5,381.5C 770.502,345.337 770.168,309.004 770.5,272.5C 777.687,272.175 784.687,272.509 791.5,273.5 Z"/></g>
<g><path style="opacity:1" fill="#e7e8e7" d="M 953.5,273.5 C 947.588,275.456 941.255,276.123 934.5,275.5C 934.5,310.5 934.5,345.5 934.5,380.5C 933.502,345.004 933.168,309.337 933.5,273.5C 940.167,273.5 946.833,273.5 953.5,273.5 Z"/></g>
<g><path style="opacity:1" fill="#eaeae9" d="M 1098.5,291.5 C 1103.31,290.513 1108.31,290.179 1113.5,290.5C 1113,285.848 1112.67,281.181 1112.5,276.5C 1088.5,276.5 1064.5,276.5 1040.5,276.5C 1040.5,281.167 1040.5,285.833 1040.5,290.5C 1045.69,290.179 1050.69,290.513 1055.5,291.5C 1049.5,291.5 1043.5,291.5 1037.5,291.5C 1037.5,285.5 1037.5,279.5 1037.5,273.5C 1063.5,273.5 1089.5,273.5 1115.5,273.5C 1115.5,279.5 1115.5,285.5 1115.5,291.5C 1109.83,291.5 1104.17,291.5 1098.5,291.5 Z"/></g>
<g><path style="opacity:1" fill="#aeaeae" d="M 953.5,273.5 C 953.833,273.5 954.167,273.5 954.5,273.5C 954.833,273.5 955.167,273.5 955.5,273.5C 955.5,282.833 955.5,292.167 955.5,301.5C 954.5,301.5 953.5,301.5 952.5,301.5C 952.5,293.167 952.5,284.833 952.5,276.5C 946.833,276.5 941.167,276.5 935.5,276.5C 935.5,310.833 935.5,345.167 935.5,379.5C 940.833,379.5 946.167,379.5 951.5,379.5C 946.025,380.489 940.358,380.822 934.5,380.5C 934.5,345.5 934.5,310.5 934.5,275.5C 941.255,276.123 947.588,275.456 953.5,273.5 Z"/></g>
<g><path style="opacity:1" fill="#dcdbda" d="M 540.5,285.5 C 540.5,317.167 540.5,348.833 540.5,380.5C 534.167,380.5 527.833,380.5 521.5,380.5C 521.5,344.833 521.5,309.167 521.5,273.5C 527.833,273.5 534.167,273.5 540.5,273.5C 540.5,277.5 540.5,281.5 540.5,285.5 Z"/></g>
<g><path style="opacity:1" fill="#dddddb" d="M 790.5,273.5 C 790.5,309.167 790.5,344.833 790.5,380.5C 784.167,380.5 777.833,380.5 771.5,380.5C 771.5,344.833 771.5,309.167 771.5,273.5C 777.833,273.5 784.167,273.5 790.5,273.5 Z"/></g>
<g><path style="opacity:1" fill="#dcdcda" d="M 1020.5,275.5 C 1014.17,275.5 1007.83,275.5 1001.5,275.5C 1001.33,286.505 1001.5,297.505 1002,308.5C 1002.5,297.839 1002.67,287.172 1002.5,276.5C 1008.17,276.5 1013.83,276.5 1019.5,276.5C 1019.5,310.833 1019.5,345.167 1019.5,379.5C 1013.83,379.5 1008.17,379.5 1002.5,379.5C 1002.67,370.494 1002.5,361.494 1002,352.5C 1001.5,361.827 1001.33,371.161 1001.5,380.5C 1000.21,368.818 1000.21,356.984 1001.5,345C 1001.09,341.973 1000.42,339.14 999.5,336.5C 985.01,335.504 970.343,335.171 955.5,335.5C 955.5,338.833 955.5,342.167 955.5,345.5C 954.835,343.302 954.168,340.969 953.5,338.5C 952.501,352.15 952.167,365.817 952.5,379.5C 952.167,379.5 951.833,379.5 951.5,379.5C 946.167,379.5 940.833,379.5 935.5,379.5C 935.5,345.167 935.5,310.833 935.5,276.5C 941.167,276.5 946.833,276.5 952.5,276.5C 952.5,284.833 952.5,293.167 952.5,301.5C 953.5,301.5 954.5,301.5 955.5,301.5C 955.181,306.363 955.514,311.03 956.5,315.5C 959.287,316.477 962.287,316.81 965.5,316.5C 962.642,317.166 959.642,317.833 956.5,318.5C 970.822,319.666 985.155,319.833 999.5,319C 995.167,318.667 990.833,318.333 986.5,318C 991.019,317.825 995.353,317.325 999.5,316.5C 1000.5,302.343 1000.83,288.01 1000.5,273.5C 1007.58,272.874 1014.25,273.541 1020.5,275.5 Z"/></g>
<g><path style="opacity:1" fill="#dcdcda" d="M 1098.5,291.5 C 1094.88,292.244 1091.21,292.577 1087.5,292.5C 1087.5,300.167 1087.5,307.833 1087.5,315.5C 1086.5,336.994 1086.17,358.66 1086.5,380.5C 1080.17,380.5 1073.83,380.5 1067.5,380.5C 1067.67,351.165 1067.5,321.831 1067,292.5C 1063.27,291.54 1059.44,291.207 1055.5,291.5C 1050.69,290.513 1045.69,290.179 1040.5,290.5C 1040.5,285.833 1040.5,281.167 1040.5,276.5C 1064.5,276.5 1088.5,276.5 1112.5,276.5C 1112.67,281.181 1113,285.848 1113.5,290.5C 1108.31,290.179 1103.31,290.513 1098.5,291.5 Z"/></g>
<g><path style="opacity:1" fill="#b2b2b0" d="M 578.5,274.5 C 575.038,275.482 571.371,275.815 567.5,275.5C 567.5,310.167 567.5,344.833 567.5,379.5C 572.5,379.5 577.5,379.5 582.5,379.5C 577.36,380.488 572.026,380.821 566.5,380.5C 566.5,345.167 566.5,309.833 566.5,274.5C 570.5,274.5 574.5,274.5 578.5,274.5 Z"/></g>
<g><path style="opacity:1" fill="#4c4d4d" d="M 647.5,272.5 C 642.833,272.5 638.167,272.5 633.5,272.5C 633.831,296.672 633.498,320.672 632.5,344.5C 632.5,320.167 632.5,295.833 632.5,271.5C 637.695,271.179 642.695,271.513 647.5,272.5 Z"/></g>
<g><path style="opacity:1" fill="#b9b9b9" d="M 1020.5,275.5 C 1020.5,310.5 1020.5,345.5 1020.5,380.5C 1014.17,380.5 1007.83,380.5 1001.5,380.5C 1001.33,371.161 1001.5,361.827 1002,352.5C 1002.5,361.494 1002.67,370.494 1002.5,379.5C 1008.17,379.5 1013.83,379.5 1019.5,379.5C 1019.5,345.167 1019.5,310.833 1019.5,276.5C 1013.83,276.5 1008.17,276.5 1002.5,276.5C 1002.67,287.172 1002.5,297.839 1002,308.5C 1001.5,297.505 1001.33,286.505 1001.5,275.5C 1007.83,275.5 1014.17,275.5 1020.5,275.5 Z"/></g>
<g><path style="opacity:1" fill="#1c110b" d="M 445.5,236.5 C 447.173,237.343 448.34,238.676 449,240.5C 455.796,271.945 454.13,302.945 444,333.5C 443.578,335.426 442.411,336.426 440.5,336.5C 443.518,328.407 445.518,320.074 446.5,311.5C 447.966,310.653 448.8,309.32 449,307.5C 450.165,297.865 450.998,288.199 451.5,278.5C 451.467,273.603 450.801,268.937 449.5,264.5C 449.146,255.001 447.813,245.667 445.5,236.5 Z"/></g>
<g><path style="opacity:1" fill="#6d6d6d" d="M 541.5,285.5 C 541.167,285.5 540.833,285.5 540.5,285.5C 540.5,281.5 540.5,277.5 540.5,273.5C 534.167,273.5 527.833,273.5 521.5,273.5C 521.5,309.167 521.5,344.833 521.5,380.5C 527.979,381.491 534.646,381.824 541.5,381.5C 541.5,357.5 541.5,333.5 541.5,309.5C 542.498,333.661 542.831,357.994 542.5,382.5C 535.167,382.5 527.833,382.5 520.5,382.5C 520.5,353.833 520.5,325.167 520.5,296.5C 520.5,288.5 520.5,280.5 520.5,272.5C 527.5,272.5 534.5,272.5 541.5,272.5C 541.5,276.833 541.5,281.167 541.5,285.5 Z"/></g>
<g><path style="opacity:1" fill="#abacab" d="M 647.5,272.5 C 649.833,272.5 652.167,272.5 654.5,272.5C 654.5,308.833 654.5,345.167 654.5,381.5C 648.642,381.822 642.975,381.489 637.5,380.5C 642.405,379.555 647.405,379.221 652.5,379.5C 652.5,345.167 652.5,310.833 652.5,276.5C 646.833,276.5 641.167,276.5 635.5,276.5C 635.5,300.5 635.5,324.5 635.5,348.5C 632.402,348.587 632.068,348.087 634.5,347C 632.456,346.502 631.122,345.335 630.5,343.5C 631.167,343.833 631.833,344.167 632.5,344.5C 633.498,320.672 633.831,296.672 633.5,272.5C 638.167,272.5 642.833,272.5 647.5,272.5 Z"/></g>
<g><path style="opacity:1" fill="#f0f1ee" d="M 634.5,273.5 C 640.868,273.17 647.202,273.504 653.5,274.5C 650.333,274.833 647.167,275.167 644,275.5C 640.424,275.485 637.258,274.818 634.5,273.5 Z"/></g>
<g><path style="opacity:1" fill="#6d6f6f" d="M 654.5,272.5 C 655.498,308.996 655.832,345.663 655.5,382.5C 648.825,382.666 642.158,382.5 635.5,382C 634.263,381.768 633.263,381.268 632.5,380.5C 634.167,380.5 635.833,380.5 637.5,380.5C 642.975,381.489 648.642,381.822 654.5,381.5C 654.5,345.167 654.5,308.833 654.5,272.5 Z"/></g>
<g><path style="opacity:1" fill="#828283" d="M 954.5,273.5 C 954.167,273.5 953.833,273.5 953.5,273.5C 946.833,273.5 940.167,273.5 933.5,273.5C 933.168,309.337 933.502,345.004 934.5,380.5C 940.358,380.822 946.025,380.489 951.5,379.5C 951.833,379.5 952.167,379.5 952.5,379.5C 954.157,370.043 955.157,360.376 955.5,350.5C 955.5,361.167 955.5,371.833 955.5,382.5C 950.833,382.5 946.167,382.5 941.5,382.5C 938.482,382.296 935.482,381.963 932.5,381.5C 932.5,345.167 932.5,308.833 932.5,272.5C 940.019,272.175 947.352,272.508 954.5,273.5 Z"/></g>
<g><path style="opacity:1" fill="#868686" d="M 585.5,273.5 C 583.5,273.5 581.5,273.5 579.5,273.5C 574.833,273.5 570.167,273.5 565.5,273.5C 565.168,309.337 565.502,345.004 566.5,380.5C 572.026,380.821 577.36,380.488 582.5,379.5C 582.833,379.5 583.167,379.5 583.5,379.5C 585.489,357.525 586.156,335.192 585.5,312.5C 585.263,311.209 585.596,310.209 586.5,309.5C 586.5,317.5 586.5,325.5 586.5,333.5C 586.5,349.833 586.5,366.167 586.5,382.5C 581.167,382.5 575.833,382.5 570.5,382.5C 568.5,382.5 566.5,382.5 564.5,382.5C 564.5,345.833 564.5,309.167 564.5,272.5C 571.687,272.175 578.687,272.509 585.5,273.5 Z"/></g>
<g><path style="opacity:1" fill="#696a69" d="M 719.5,290.5 C 715.833,290.5 712.167,290.5 708.5,290.5C 712.167,287.833 715.833,287.833 719.5,290.5 Z"/></g>
<g><path style="opacity:1" fill="#5c5c5c" d="M 869.5,291.5 C 862.109,291.706 855.109,293.372 848.5,296.5C 849.771,294.066 851.771,292.566 854.5,292C 859.622,290.477 864.622,290.31 869.5,291.5 Z"/></g>
<g><path style="opacity:1" fill="#c6b79f" d="M 41.5,257.5 C 41.7014,273.559 41.7014,289.559 41.5,305.5C 40.1045,301.409 39.4379,297.076 39.5,292.5C 40.1667,280.833 40.8333,269.167 41.5,257.5 Z"/></g>
<g><path style="opacity:1" fill="#959596" d="M 790.5,273.5 C 790.833,273.5 791.167,273.5 791.5,273.5C 791.5,281.833 791.5,290.167 791.5,298.5C 791.5,326.167 791.5,353.833 791.5,381.5C 786.167,381.5 780.833,381.5 775.5,381.5C 774.167,381.5 772.833,381.5 771.5,381.5C 771.5,381.167 771.5,380.833 771.5,380.5C 777.833,380.5 784.167,380.5 790.5,380.5C 790.5,344.833 790.5,309.167 790.5,273.5 Z"/></g>
<g><path style="opacity:1" fill="#8f8f8e" d="M 1132.5,291.5 C 1132.5,298.5 1132.5,305.5 1132.5,312.5C 1130.57,306.085 1130.07,299.418 1131,292.5C 1131.38,291.944 1131.88,291.611 1132.5,291.5 Z"/></g>
<g><path style="opacity:1" fill="#666767" d="M 730.5,297.5 C 731.506,301.345 733.84,302.345 737.5,300.5C 737.03,301.693 736.03,302.36 734.5,302.5C 731.089,302.597 729.755,300.93 730.5,297.5 Z"/></g>
<g><path style="opacity:1" fill="#5c341a" d="M 401.5,292.5 C 401.834,299.505 400.167,305.838 396.5,311.5C 398.308,305.092 399.975,298.759 401.5,292.5 Z"/></g>
<g><path style="opacity:1" fill="#3a3a3a" d="M 520.5,296.5 C 520.5,325.167 520.5,353.833 520.5,382.5C 519.168,372.021 518.501,361.188 518.5,350C 518.381,331.978 519.048,314.145 520.5,296.5 Z"/></g>
<g><path style="opacity:1" fill="#9a9b9a" d="M 678.5,294.5 C 678.365,301.862 678.698,309.196 679.5,316.5C 677.983,312.44 677.316,308.107 677.5,303.5C 677.502,300.314 677.835,297.314 678.5,294.5 Z"/></g>
<g><path style="opacity:1" fill="#cebda1" d="M 110.5,307.5 C 111.167,308.167 111.833,308.833 112.5,309.5C 118.011,338.538 128.344,365.704 143.5,391C 142.35,393.316 140.683,395.15 138.5,396.5C 139.347,393.84 139.847,391.174 140,388.5C 138.68,388.201 137.18,388.034 135.5,388C 136.357,387.311 137.023,386.478 137.5,385.5C 122.449,361.34 113.449,335.34 110.5,307.5 Z"/></g>
<g><path style="opacity:1" fill="#a8a8a8" d="M 540.5,285.5 C 540.833,285.5 541.167,285.5 541.5,285.5C 541.5,293.5 541.5,301.5 541.5,309.5C 541.5,333.5 541.5,357.5 541.5,381.5C 534.646,381.824 527.979,381.491 521.5,380.5C 527.833,380.5 534.167,380.5 540.5,380.5C 540.5,348.833 540.5,317.167 540.5,285.5 Z"/></g>
<g><path style="opacity:1" fill="#9e9e9e" d="M 1021.5,309.5 C 1021.5,333.5 1021.5,357.5 1021.5,381.5C 1014.17,381.5 1006.83,381.5 999.5,381.5C 999.5,366.5 999.5,351.5 999.5,336.5C 1000.42,339.14 1001.09,341.973 1001.5,345C 1000.21,356.984 1000.21,368.818 1001.5,380.5C 1007.83,380.5 1014.17,380.5 1020.5,380.5C 1020.5,345.5 1020.5,310.5 1020.5,275.5C 1014.25,273.541 1007.58,272.874 1000.5,273.5C 1000.83,288.01 1000.5,302.343 999.5,316.5C 999.5,306.167 999.5,295.833 999.5,285.5C 999.5,281.167 999.5,276.833 999.5,272.5C 1006.83,272.5 1014.17,272.5 1021.5,272.5C 1021.5,284.833 1021.5,297.167 1021.5,309.5 Z"/></g>
<g><path style="opacity:1" fill="#494a4a" d="M 999.5,285.5 C 999.5,295.833 999.5,306.167 999.5,316.5C 988.167,316.5 976.833,316.5 965.5,316.5C 962.287,316.81 959.287,316.477 956.5,315.5C 970.5,315.5 984.5,315.5 998.5,315.5C 998.173,305.319 998.506,295.319 999.5,285.5 Z"/></g>
<g><path style="opacity:1" fill="#b0b0af" d="M 965.5,316.5 C 976.833,316.5 988.167,316.5 999.5,316.5C 995.353,317.325 991.019,317.825 986.5,318C 990.833,318.333 995.167,318.667 999.5,319C 985.155,319.833 970.822,319.666 956.5,318.5C 959.642,317.833 962.642,317.166 965.5,316.5 Z"/></g>
<g><path style="opacity:1" fill="#313333" d="M 1058.5,294.5 C 1058.5,294.167 1058.5,293.833 1058.5,293.5C 1060.83,293.5 1063.17,293.5 1065.5,293.5C 1065.5,302.833 1065.5,312.167 1065.5,321.5C 1065.5,341.833 1065.5,362.167 1065.5,382.5C 1069.5,382.5 1073.5,382.5 1077.5,382.5C 1080.83,382.5 1084.17,382.5 1087.5,382.5C 1080.02,383.492 1072.35,383.825 1064.5,383.5C 1064.5,353.833 1064.5,324.167 1064.5,294.5C 1062.5,294.5 1060.5,294.5 1058.5,294.5 Z"/></g>
<g><path style="opacity:1" fill="#909091" d="M 813.5,311.5 C 812.198,320.84 812.198,330.174 813.5,339.5C 812.833,339.5 812.167,339.5 811.5,339.5C 810.311,330.986 810.311,322.319 811.5,313.5C 812.167,312.833 812.833,312.167 813.5,311.5 Z"/></g>
<g><path style="opacity:1" fill="#626262" d="M 701.5,333.5 C 704.228,333.171 706.562,333.837 708.5,335.5C 705.933,335.279 703.599,334.612 701.5,333.5 Z"/></g>
<g><path style="opacity:1" fill="#c98353" d="M 446.5,305.5 C 447.573,307.347 447.573,309.347 446.5,311.5C 445.518,320.074 443.518,328.407 440.5,336.5C 436.828,347.511 431.828,357.844 425.5,367.5C 421.01,371.326 417.677,375.993 415.5,381.5C 397.889,401.44 376.889,416.773 352.5,427.5C 349.67,427.963 347.003,428.629 344.5,429.5C 333.39,432.64 322.057,434.64 310.5,435.5C 300.14,435.704 289.806,435.371 279.5,434.5C 271.567,434.463 263.901,433.13 256.5,430.5C 256.62,429.414 257.287,428.747 258.5,428.5C 264.641,429.534 270.641,430.867 276.5,432.5C 284.229,432.74 291.896,432.407 299.5,431.5C 303.823,431.198 307.99,431.865 312,433.5C 346.612,429.939 376.445,416.272 401.5,392.5C 402.429,391.311 402.762,389.978 402.5,388.5C 403.5,388.5 404.5,388.5 405.5,388.5C 405.5,387.167 405.5,385.833 405.5,384.5C 408.91,384.616 410.244,382.95 409.5,379.5C 411.722,379.822 413.556,379.155 415,377.5C 420.488,369.869 425.488,361.869 430,353.5C 433.298,346.186 436.631,338.853 440,331.5C 442.362,322.848 444.529,314.182 446.5,305.5 Z"/></g>
<g><path style="opacity:1" fill="#797a79" d="M 912.5,354.5 C 913.089,358.971 912.423,362.971 910.5,366.5C 911.483,351.912 911.816,337.245 911.5,322.5C 895.833,322.5 880.167,322.5 864.5,322.5C 864.5,328.167 864.5,333.833 864.5,339.5C 873.5,339.5 882.5,339.5 891.5,339.5C 891.813,343.042 891.479,346.375 890.5,349.5C 890.5,346.5 890.5,343.5 890.5,340.5C 884.833,340.5 879.167,340.5 873.5,340.5C 870.167,340.5 866.833,340.5 863.5,340.5C 863.5,334.167 863.5,327.833 863.5,321.5C 879.833,321.5 896.167,321.5 912.5,321.5C 912.5,332.5 912.5,343.5 912.5,354.5 Z"/></g>
<g><path style="opacity:1" fill="#b3b3b2" d="M 865.5,323.5 C 880.167,323.5 894.833,323.5 909.5,323.5C 909.666,332.173 909.5,340.84 909,349.5C 908.5,341.173 908.334,332.84 908.5,324.5C 894.5,324.5 880.5,324.5 866.5,324.5C 866.5,328.833 866.5,333.167 866.5,337.5C 872.842,337.334 879.175,337.5 885.5,338C 878.842,338.5 872.175,338.666 865.5,338.5C 865.5,333.5 865.5,328.5 865.5,323.5 Z"/></g>
<g><path style="opacity:1" fill="#464646" d="M 873.5,340.5 C 879.167,340.5 884.833,340.5 890.5,340.5C 890.5,343.5 890.5,346.5 890.5,349.5C 890.795,351.735 890.461,353.735 889.5,355.5C 889.5,350.833 889.5,346.167 889.5,341.5C 883.974,341.821 878.64,341.488 873.5,340.5 Z"/></g>
<g><path style="opacity:1" fill="#bdbdbc" d="M 585.5,312.5 C 586.156,335.192 585.489,357.525 583.5,379.5C 582.844,356.808 583.511,334.475 585.5,312.5 Z"/></g>
<g><path style="opacity:1" fill="#5e5e5e" d="M 811.5,339.5 C 812.167,339.5 812.833,339.5 813.5,339.5C 814.051,342.807 814.384,346.14 814.5,349.5C 812.723,346.495 811.723,343.162 811.5,339.5 Z"/></g>
<g><path style="opacity:1" fill="#9d9e9d" d="M 750.5,337.5 C 751.315,338.429 752.148,339.429 753,340.5C 753.819,346.681 753.653,352.681 752.5,358.5C 752.553,351.421 751.887,344.421 750.5,337.5 Z"/></g>
<g><path style="opacity:1" fill="#aeaeae" d="M 1087.5,315.5 C 1087.5,337.5 1087.5,359.5 1087.5,381.5C 1084.17,381.5 1080.83,381.5 1077.5,381.5C 1073.96,381.813 1070.62,381.479 1067.5,380.5C 1073.83,380.5 1080.17,380.5 1086.5,380.5C 1086.17,358.66 1086.5,336.994 1087.5,315.5 Z"/></g>
<g><path style="opacity:1" fill="#616162" d="M 791.5,298.5 C 792.498,326.328 792.831,354.328 792.5,382.5C 786.642,382.822 780.975,382.489 775.5,381.5C 780.833,381.5 786.167,381.5 791.5,381.5C 791.5,353.833 791.5,326.167 791.5,298.5 Z"/></g>
<g><path style="opacity:1" fill="#3c3d3d" d="M 1145.5,351.5 C 1144.19,350.524 1142.85,349.524 1141.5,348.5C 1139.22,349.702 1136.89,350.702 1134.5,351.5C 1134.87,348.38 1136.71,347.046 1140,347.5C 1143.13,347.142 1144.97,348.475 1145.5,351.5 Z"/></g>
<g><path style="opacity:1" fill="#686969" d="M 1021.5,309.5 C 1022.5,333.661 1022.83,357.994 1022.5,382.5C 1014.5,382.5 1006.5,382.5 998.5,382.5C 998.5,367.167 998.5,351.833 998.5,336.5C 984.5,336.5 970.5,336.5 956.5,336.5C 956.5,352.167 956.5,367.833 956.5,383.5C 951.305,383.821 946.305,383.487 941.5,382.5C 946.167,382.5 950.833,382.5 955.5,382.5C 955.5,371.833 955.5,361.167 955.5,350.5C 955.5,348.833 955.5,347.167 955.5,345.5C 955.5,342.167 955.5,338.833 955.5,335.5C 970.343,335.171 985.01,335.504 999.5,336.5C 999.5,351.5 999.5,366.5 999.5,381.5C 1006.83,381.5 1014.17,381.5 1021.5,381.5C 1021.5,357.5 1021.5,333.5 1021.5,309.5 Z"/></g>
<g><path style="opacity:1" fill="#ed824a" d="M 218.5,349.5 C 230.746,363.085 245.413,373.085 262.5,379.5C 265.167,380.833 267.833,382.167 270.5,383.5C 269.761,383.369 269.094,383.536 268.5,384C 270.221,384.739 271.887,385.573 273.5,386.5C 270.869,388.005 271.203,388.671 274.5,388.5C 274.167,390.5 273.833,392.5 273.5,394.5C 276.244,395.51 278.577,395.176 280.5,393.5C 281.5,394.833 282.5,394.833 283.5,393.5C 285.5,394.833 287.167,396.5 288.5,398.5C 290.915,397.695 293.249,396.695 295.5,395.5C 296.5,396.5 297.5,397.5 298.5,398.5C 297.675,403.911 298.175,409.244 300,414.5C 300.748,412.668 301.748,411.001 303,409.5C 304.806,412.479 306.973,415.146 309.5,417.5C 309,418.5 308.5,419.5 308,420.5C 306.333,419.833 304.667,419.167 303,418.5C 301.836,420.649 300.67,422.815 299.5,425C 303.698,427.695 303.365,429.361 298.5,430C 299.056,430.383 299.389,430.883 299.5,431.5C 291.896,432.407 284.229,432.74 276.5,432.5C 270.641,430.867 264.641,429.534 258.5,428.5C 257.287,428.747 256.62,429.414 256.5,430.5C 252.025,430.979 249.025,433.312 247.5,437.5C 234.696,456.491 222.03,475.657 209.5,495C 207.167,495.667 204.833,495.667 202.5,495C 177.118,487.249 153.785,475.583 132.5,460C 131.978,459.439 131.645,458.772 131.5,458C 149.32,436.178 167.153,414.345 185,392.5C 187.088,389.956 186.921,387.623 184.5,385.5C 186.057,382.846 187.89,380.18 190,377.5C 191,378.5 192,379.5 193,380.5C 194.067,379.809 195.234,379.309 196.5,379C 192.966,374.924 192.633,370.591 195.5,366C 198.877,365.548 202.211,364.882 205.5,364C 204.296,360.809 205.463,358.643 209,357.5C 211.892,358.394 214.226,360.06 216,362.5C 216.333,362.167 216.667,361.833 217,361.5C 215.793,359.038 214.626,356.371 213.5,353.5C 213.804,351.559 214.637,349.893 216,348.5C 216.342,350.619 217.175,350.953 218.5,349.5 Z"/></g>
<g><path style="opacity:1" fill="#7b7b7b" d="M 1183.5,344.5 C 1187.5,348.833 1187.5,353.167 1183.5,357.5C 1183.5,353.167 1183.5,348.833 1183.5,344.5 Z"/></g>
<g><path style="opacity:1" fill="#4b4d4d" d="M 1065.5,321.5 C 1066.17,341.167 1066.83,360.833 1067.5,380.5C 1070.62,381.479 1073.96,381.813 1077.5,381.5C 1077.5,381.833 1077.5,382.167 1077.5,382.5C 1073.5,382.5 1069.5,382.5 1065.5,382.5C 1065.5,362.167 1065.5,341.833 1065.5,321.5 Z"/></g>
<g><path style="opacity:1" fill="#5d5d5c" d="M 857.5,361.5 C 863.833,361.5 870.167,361.5 876.5,361.5C 873.45,362.935 870.117,363.602 866.5,363.5C 863.186,363.657 860.186,362.991 857.5,361.5 Z"/></g>
<g><path style="opacity:1" fill="#4d4d4d" d="M 705.5,362.5 C 710.167,362.5 714.833,362.5 719.5,362.5C 714.833,365.167 710.167,365.167 705.5,362.5 Z"/></g>
<g><path style="opacity:1" fill="#464645" d="M 1157.5,361.5 C 1164.17,361.5 1170.83,361.5 1177.5,361.5C 1170.83,365.5 1164.17,365.5 1157.5,361.5 Z"/></g>
<g><path style="opacity:1" fill="#bdbdbd" d="M 955.5,345.5 C 955.5,347.167 955.5,348.833 955.5,350.5C 955.157,360.376 954.157,370.043 952.5,379.5C 952.167,365.817 952.501,352.15 953.5,338.5C 954.168,340.969 954.835,343.302 955.5,345.5 Z"/></g>
<g><path style="opacity:1" fill="#412616" d="M 425.5,367.5 C 425.108,369.179 424.608,370.846 424,372.5C 420.934,375.396 418.101,378.396 415.5,381.5C 417.677,375.993 421.01,371.326 425.5,367.5 Z"/></g>
<g><path style="opacity:1" fill="#825130" d="M 337.5,377.5 C 335.97,379.346 333.97,380.346 331.5,380.5C 332.911,378.461 334.911,377.461 337.5,377.5 Z"/></g>
<g><path style="opacity:1" fill="#525252" d="M 586.5,333.5 C 587.497,349.992 587.83,366.658 587.5,383.5C 581.642,383.822 575.975,383.489 570.5,382.5C 575.833,382.5 581.167,382.5 586.5,382.5C 586.5,366.167 586.5,349.833 586.5,333.5 Z"/></g>
<g><path style="opacity:1" fill="#9f9f9f" d="M 844.5,380.5 C 856.485,381.243 868.485,381.576 880.5,381.5C 875.252,383.022 869.752,383.689 864,383.5C 857.116,383.935 850.616,382.935 844.5,380.5 Z"/></g>
<g><path style="opacity:1" fill="#808280" d="M 1149.5,380.5 C 1153.16,380.723 1156.5,381.723 1159.5,383.5C 1155.74,383.605 1152.41,382.605 1149.5,380.5 Z"/></g>
<g><path style="opacity:1" fill="#787878" d="M 1183.5,380.5 C 1180.75,382.975 1177.42,383.975 1173.5,383.5C 1176.55,381.899 1179.88,380.899 1183.5,380.5 Z"/></g>
<g><path style="opacity:1" fill="#7c4423" d="M 262.5,379.5 C 270.218,380.677 277.885,382.177 285.5,384C 299.33,385.22 312.996,384.386 326.5,381.5C 324.142,383.129 321.476,384.295 318.5,385C 302.401,387.291 286.401,386.791 270.5,383.5C 267.833,382.167 265.167,380.833 262.5,379.5 Z"/></g>
<g><path style="opacity:1" fill="#ddc6a7" d="M 443.5,409.5 C 430.028,431.309 413.028,449.976 392.5,465.5C 392.389,464.883 392.056,464.383 391.5,464C 395.833,460.333 400.167,456.667 404.5,453C 403.167,452.667 401.833,452.333 400.5,452C 399.853,450.391 399.02,448.891 398,447.5C 389.808,450.68 381.975,454.513 374.5,459C 362.392,462.693 350.392,466.693 338.5,471C 342.185,471.914 341.852,472.581 337.5,473C 333.984,473.499 330.484,473.333 327,472.5C 309.158,475.938 291.324,476.105 273.5,473C 272.5,472.667 271.5,472.333 270.5,472C 271.737,471.768 272.737,471.268 273.5,470.5C 273.833,470.5 274.167,470.5 274.5,470.5C 274.611,471.117 274.944,471.617 275.5,472C 290.025,472.678 304.359,472.178 318.5,470.5C 319.167,470.5 319.833,470.5 320.5,470.5C 325.64,471.09 330.307,470.09 334.5,467.5C 383.909,457.223 423.076,431.556 452,390.5C 452.667,391.5 452.667,392.5 452,393.5C 448.887,398.729 446.053,404.062 443.5,409.5 Z"/></g>
<g><path style="opacity:1" fill="#281912" d="M 344.5,429.5 C 336.469,435.116 327.469,437.616 317.5,437C 299.808,437.825 282.142,437.491 264.5,436C 260.732,433.944 256.732,432.778 252.5,432.5C 253.167,434.819 253.334,437.153 253,439.5C 251.556,437.845 249.722,437.178 247.5,437.5C 249.025,433.312 252.025,430.979 256.5,430.5C 263.901,433.13 271.567,434.463 279.5,434.5C 279.611,435.117 279.944,435.617 280.5,436C 290.675,436.825 300.675,436.658 310.5,435.5C 322.057,434.64 333.39,432.64 344.5,429.5 Z"/></g>
<g><path style="opacity:1" fill="#8a583c" d="M 279.5,434.5 C 289.806,435.371 300.14,435.704 310.5,435.5C 300.675,436.658 290.675,436.825 280.5,436C 279.944,435.617 279.611,435.117 279.5,434.5 Z"/></g>
<g><path style="opacity:1" fill="#eccaa5" d="M 392.5,465.5 C 381.217,476.155 368.217,484.322 353.5,490C 317.84,503.446 281.174,507.612 243.5,502.5C 248.448,493.604 253.114,484.604 257.5,475.5C 259.539,474.089 260.539,472.089 260.5,469.5C 265.032,469.182 269.366,469.515 273.5,470.5C 272.737,471.268 271.737,471.768 270.5,472C 271.5,472.333 272.5,472.667 273.5,473C 291.324,476.105 309.158,475.938 327,472.5C 330.484,473.333 333.984,473.499 337.5,473C 341.852,472.581 342.185,471.914 338.5,471C 350.392,466.693 362.392,462.693 374.5,459C 381.975,454.513 389.808,450.68 398,447.5C 399.02,448.891 399.853,450.391 400.5,452C 401.833,452.333 403.167,452.667 404.5,453C 400.167,456.667 395.833,460.333 391.5,464C 392.056,464.383 392.389,464.883 392.5,465.5 Z"/></g>
<g><path style="opacity:1" fill="#857966" d="M 334.5,467.5 C 330.307,470.09 325.64,471.09 320.5,470.5C 325.1,469.666 329.766,468.666 334.5,467.5 Z"/></g>
<g><path style="opacity:1" fill="#75695a" d="M 274.5,470.5 C 289.167,470.5 303.833,470.5 318.5,470.5C 304.359,472.178 290.025,472.678 275.5,472C 274.944,471.617 274.611,471.117 274.5,470.5 Z"/></g>
</svg>
