<?xml version="1.0" encoding="UTF-8"?>
<!DOCTYPE svg PUBLIC "-//W3C//DTD SVG 1.1//EN" "http://www.w3.org/Graphics/SVG/1.1/DTD/svg11.dtd">
<svg xmlns="http://www.w3.org/2000/svg" version="1.1" width="1253px" height="538px" style="shape-rendering:geometricPrecision; text-rendering:geometricPrecision; image-rendering:optimizeQuality; fill-rule:evenodd; clip-rule:evenodd" xmlns:xlink="http://www.w3.org/1999/xlink">
<g><path style="opacity:1" fill="#f2f1ee" d="M -0.5,-0.5 C 417.167,-0.5 834.833,-0.5 1252.5,-0.5C 1252.5,178.833 1252.5,358.167 1252.5,537.5C 834.833,537.5 417.167,537.5 -0.5,537.5C -0.5,358.167 -0.5,178.833 -0.5,-0.5 Z"/></g>
<g><path style="opacity:1" fill="#113358" d="M 360.5,58.5 C 361.802,60.8218 363.802,62.1551 366.5,62.5C 391.495,76.4893 412.828,94.8226 430.5,117.5C 429.761,117.369 429.094,117.536 428.5,118C 430.5,120.667 432.5,123.333 434.5,126C 432.549,127.734 431.549,129.901 431.5,132.5C 432.822,132.33 433.989,132.663 435,133.5C 435.471,131.754 436.138,130.087 437,128.5C 441.83,135.357 446.33,142.524 450.5,150C 449.725,151.23 448.725,151.563 447.5,151C 446.378,148.876 444.878,147.043 443,145.5C 442.517,146.448 442.351,147.448 442.5,148.5C 416.36,119.088 384.36,98.755 346.5,87.5C 344.786,86.2616 342.786,85.595 340.5,85.5C 334.727,85.5624 329.061,84.8957 323.5,83.5C 318.084,81.8827 312.417,81.216 306.5,81.5C 298.344,80.3434 290.01,80.1768 281.5,81C 279.942,81.21 278.609,81.71 277.5,82.5C 270.951,84.0981 264.285,85.0981 257.5,85.5C 254.873,86.1049 252.207,86.6049 249.5,87C 248.944,87.3826 248.611,87.8826 248.5,88.5C 196.495,104.757 157.329,136.757 131,184.5C 129.132,187.605 127.965,190.938 127.5,194.5C 124.449,198.614 122.449,203.28 121.5,208.5C 116.43,220.033 113.43,232.033 112.5,244.5C 111.037,247.203 110.204,250.203 110,253.5C 109.221,271.525 109.387,289.525 110.5,307.5C 109.371,309.628 109.204,311.961 110,314.5C 114.931,337.351 122.931,359.018 134,379.5C 134.333,379.833 134.667,380.167 135,380.5C 135.278,379.584 135.778,378.918 136.5,378.5C 139.89,382.686 142.056,387.352 143,392.5C 131.362,405.474 119.695,418.474 108,431.5C 106.887,433.329 105.387,434.163 103.5,434C 44.7886,369.477 25.9553,294.644 47,209.5C 67.545,141.574 109.712,92.0739 173.5,61C 220.478,39.5022 269.144,34.5022 319.5,46C 333.466,49.2672 347.133,53.4339 360.5,58.5 Z"/></g>
<g><path style="opacity:1" fill="#9ba3b7" d="M 360.5,58.5 C 362.853,59.3403 364.853,60.6736 366.5,62.5C 363.802,62.1551 361.802,60.8218 360.5,58.5 Z"/></g>
<g><path style="opacity:1" fill="#69798e" d="M 306.5,81.5 C 300.31,81.1771 294.31,81.5104 288.5,82.5C 284.833,82.5 281.167,82.5 277.5,82.5C 278.609,81.71 279.942,81.21 281.5,81C 290.01,80.1768 298.344,80.3434 306.5,81.5 Z"/></g>
<g><path style="opacity:1" fill="#bbc1c8" d="M 288.5,82.5 C 294.31,81.5104 300.31,81.1771 306.5,81.5C 312.417,81.216 318.084,81.8827 323.5,83.5C 311.852,82.6983 300.185,82.3649 288.5,82.5 Z"/></g>
<g><path style="opacity:1" fill="#818ea0" d="M 257.5,85.5 C 257.389,86.1174 257.056,86.6174 256.5,87C 253.832,87.567 251.166,88.067 248.5,88.5C 248.611,87.8826 248.944,87.3826 249.5,87C 252.207,86.6049 254.873,86.1049 257.5,85.5 Z"/></g>
<g><path style="opacity:1" fill="#6c7a8f" d="M 340.5,85.5 C 342.786,85.595 344.786,86.2616 346.5,87.5C 343.918,87.9746 341.918,87.3079 340.5,85.5 Z"/></g>
<g><path style="opacity:1" fill="#242426" d="M 712.5,138.5 C 708.354,137.353 704.02,137.186 699.5,138C 698.944,138.383 698.611,138.883 698.5,139.5C 696.345,139.372 694.345,139.872 692.5,141C 689.424,143.62 686.258,146.12 683,148.5C 681.392,151.772 679.392,154.772 677,157.5C 675.872,159.345 675.372,161.345 675.5,163.5C 673.926,165.102 673.259,167.102 673.5,169.5C 672.883,169.611 672.383,169.944 672,170.5C 671.19,174.358 671.357,178.024 672.5,181.5C 672.565,184.428 673.232,187.095 674.5,189.5C 676.49,201.135 682.823,209.135 693.5,213.5C 694.975,215.41 696.975,216.576 699.5,217C 707.208,217.706 714.875,217.372 722.5,216C 723.056,215.617 723.389,215.117 723.5,214.5C 730.836,211.493 736.17,206.493 739.5,199.5C 746.324,202.745 752.991,206.245 759.5,210C 760.517,211.049 760.684,212.216 760,213.5C 751.25,228.962 738.083,238.129 720.5,241C 689.892,245.612 667.392,234.445 653,207.5C 646.429,189.036 645.762,170.369 651,151.5C 665.879,119.63 690.712,107.13 725.5,114C 738.253,117.963 748.42,125.463 756,136.5C 757.914,139.298 758.914,142.298 759,145.5C 753.171,148.748 747.171,151.748 741,154.5C 736.865,150.035 732.365,145.868 727.5,142C 722.671,140.042 717.671,138.876 712.5,138.5 Z"/></g>
<g><path style="opacity:1" fill="#232325" d="M 841.5,138.5 C 837.354,137.353 833.02,137.186 828.5,138C 827.944,138.383 827.611,138.883 827.5,139.5C 820.695,141.152 814.862,144.485 810,149.5C 801.329,161.147 798.663,174.147 802,188.5C 803.989,202.652 811.823,211.652 825.5,215.5C 828.55,216.935 831.883,217.602 835.5,217.5C 840.184,217.164 844.851,216.664 849.5,216C 850.416,215.722 851.082,215.222 851.5,214.5C 858.673,211.001 864.673,206.001 869.5,199.5C 876.391,203.105 882.725,207.438 888.5,212.5C 881.143,227.01 869.476,236.177 853.5,240C 835.999,243.696 819.332,241.696 803.5,234C 797.667,228.833 791.833,223.667 786,218.5C 780.235,209.309 777.069,199.309 776.5,188.5C 776.35,179.143 776.683,169.809 777.5,160.5C 782.072,140.237 793.739,125.403 812.5,116C 816.134,115.844 819.467,114.844 822.5,113C 836.137,112.074 849.47,113.74 862.5,118C 874.091,123.757 882.424,132.591 887.5,144.5C 881.818,148.43 875.651,151.763 869,154.5C 864.178,150.347 859.345,146.18 854.5,142C 850.429,139.885 846.095,138.719 841.5,138.5 Z"/></g>
<g><path style="opacity:1" fill="#5b5a5b" d="M 1069.5,114.5 C 1060.14,114.35 1050.81,114.683 1041.5,115.5C 1046.75,113.978 1052.25,113.311 1058,113.5C 1062.02,113.501 1065.85,113.835 1069.5,114.5 Z"/></g>
<g><path style="opacity:1" fill="#6a6a6a" d="M 1175.5,114.5 C 1167.8,114.309 1160.13,114.642 1152.5,115.5C 1160.06,112.084 1167.73,111.751 1175.5,114.5 Z"/></g>
<g><path style="opacity:1" fill="#bcbbbb" d="M 587.5,114.5 C 580.992,114.868 574.658,115.535 568.5,116.5C 567.833,117.5 567.167,118.5 566.5,119.5C 566.5,117.5 566.5,115.5 566.5,113.5C 573.687,113.175 580.687,113.509 587.5,114.5 Z"/></g>
<g><path style="opacity:1" fill="#a8a7a8" d="M 957.5,114.5 C 969.678,114.172 981.678,114.505 993.5,115.5C 993.167,115.5 992.833,115.5 992.5,115.5C 965.5,115.5 938.5,115.5 911.5,115.5C 910.502,149.329 910.168,183.329 910.5,217.5C 909.509,211.021 909.176,204.354 909.5,197.5C 909.5,169.833 909.5,142.167 909.5,114.5C 925.5,114.5 941.5,114.5 957.5,114.5 Z"/></g>
<g><path style="opacity:1" fill="#242425" d="M 1069.5,114.5 C 1083.57,116.911 1093.57,124.578 1099.5,137.5C 1098.99,139.088 1097.99,140.255 1096.5,141C 1091,143.915 1085.67,147.081 1080.5,150.5C 1076.63,139.484 1068.8,134.151 1057,134.5C 1043.64,134.503 1038.64,140.836 1042,153.5C 1047.64,159.217 1054.47,162.55 1062.5,163.5C 1064.5,165.982 1067.17,166.982 1070.5,166.5C 1093.46,171.633 1103.96,185.966 1102,209.5C 1099.48,222.891 1091.98,232.224 1079.5,237.5C 1068.67,240.059 1057.67,241.059 1046.5,240.5C 1031.86,238.185 1020.52,230.852 1012.5,218.5C 1012.23,216.035 1011.57,213.701 1010.5,211.5C 1016.56,206.802 1023.23,203.135 1030.5,200.5C 1032.29,207.625 1036.62,212.625 1043.5,215.5C 1047.61,218.365 1052.28,219.699 1057.5,219.5C 1061.65,219.867 1065.32,218.867 1068.5,216.5C 1076.14,212.454 1078.64,206.121 1076,197.5C 1073.41,194.238 1070.24,191.738 1066.5,190C 1054.02,188.365 1042.02,185.032 1030.5,180C 1017.03,169.193 1012.53,155.36 1017,138.5C 1019.62,132.086 1023.12,126.253 1027.5,121C 1031.88,118.306 1036.55,116.473 1041.5,115.5C 1050.81,114.683 1060.14,114.35 1069.5,114.5 Z"/></g>
<g><path style="opacity:1" fill="#232325" d="M 1175.5,114.5 C 1189.15,115.652 1199.65,121.985 1207,133.5C 1207.81,135.579 1207.64,137.579 1206.5,139.5C 1202.47,142.177 1198.47,144.844 1194.5,147.5C 1192.5,148.167 1190.5,148.833 1188.5,149.5C 1185.36,142.365 1180.03,137.698 1172.5,135.5C 1170.71,134.003 1168.54,133.336 1166,133.5C 1163.04,133.041 1160.87,134.041 1159.5,136.5C 1148.18,138.139 1145.01,144.139 1150,154.5C 1159.65,161.608 1170.48,165.774 1182.5,167C 1197.43,171.091 1206.76,180.591 1210.5,195.5C 1210.64,201.536 1210.31,207.536 1209.5,213.5C 1204.99,229.664 1194.33,238.664 1177.5,240.5C 1168.14,240.687 1158.81,240.354 1149.5,239.5C 1134.74,236.582 1124.24,228.249 1118,214.5C 1117.28,212.888 1117.45,211.388 1118.5,210C 1123.1,207.73 1127.43,205.063 1131.5,202C 1133.74,201.023 1136.07,200.523 1138.5,200.5C 1139.52,206.187 1142.52,210.52 1147.5,213.5C 1149.05,216.112 1151.39,217.445 1154.5,217.5C 1154.83,217.5 1155.17,217.5 1155.5,217.5C 1158.55,218.935 1161.88,219.602 1165.5,219.5C 1168.53,219.713 1171.19,219.047 1173.5,217.5C 1177.89,216.642 1181.22,214.309 1183.5,210.5C 1187.5,206.5 1187.5,202.5 1183.5,198.5C 1178.78,192.184 1172.44,188.35 1164.5,187C 1134.52,185.697 1121.02,170.197 1124,140.5C 1126.51,130.677 1132.01,123.177 1140.5,118C 1144.31,116.228 1148.31,115.395 1152.5,115.5C 1160.13,114.642 1167.8,114.309 1175.5,114.5 Z"/></g>
<g><path style="opacity:1" fill="#4f4f50" d="M 587.5,114.5 C 591.042,114.187 594.375,114.521 597.5,115.5C 587.849,116.199 578.183,116.532 568.5,116.5C 574.658,115.535 580.992,114.868 587.5,114.5 Z"/></g>
<g><path style="opacity:1" fill="#0a0b0b" d="M 911.5,115.5 C 938.5,115.5 965.5,115.5 992.5,115.5C 992.83,122.532 992.497,129.532 991.5,136.5C 990.504,130.202 990.17,123.868 990.5,117.5C 964.167,117.5 937.833,117.5 911.5,117.5C 911.5,116.833 911.5,116.167 911.5,115.5 Z"/></g>
<g><path style="opacity:1" fill="#252527" d="M 597.5,115.5 C 609.578,151.235 622.745,186.568 637,221.5C 637.294,226.409 638.46,231.076 640.5,235.5C 640.423,236.75 639.756,237.583 638.5,238C 630.827,237.279 623.161,237.446 615.5,238.5C 611.647,230.606 608.981,222.273 607.5,213.5C 591.153,213.167 574.82,213.501 558.5,214.5C 556.005,218.147 554.671,222.147 554.5,226.5C 552.93,229.314 551.597,232.314 550.5,235.5C 550.586,236.496 550.252,237.329 549.5,238C 541.227,239.33 532.893,239.83 524.5,239.5C 537.875,199.378 551.875,159.378 566.5,119.5C 567.167,118.5 567.833,117.5 568.5,116.5C 578.183,116.532 587.849,116.199 597.5,115.5 Z"/></g>
<g><path style="opacity:1" fill="#4d4c4d" d="M 992.5,115.5 C 992.833,115.5 993.167,115.5 993.5,115.5C 993.5,122.833 993.5,130.167 993.5,137.5C 974.167,137.5 954.833,137.5 935.5,137.5C 935.389,136.883 935.056,136.383 934.5,136C 952.833,135.667 971.167,135.333 989.5,135C 973.167,134.667 956.833,134.333 940.5,134C 956.497,133.5 972.497,133.333 988.5,133.5C 988.5,128.833 988.5,124.167 988.5,119.5C 963.833,119.5 939.167,119.5 914.5,119.5C 914.5,158.167 914.5,196.833 914.5,235.5C 939.167,235.5 963.833,235.5 988.5,235.5C 988.5,230.5 988.5,225.5 988.5,220.5C 975.323,220.829 962.323,220.495 949.5,219.5C 962.833,219.5 976.167,219.5 989.5,219.5C 989.34,221.199 989.506,222.866 990,224.5C 990.495,222.527 990.662,220.527 990.5,218.5C 976.656,218.829 962.99,218.496 949.5,217.5C 963.5,217.5 977.5,217.5 991.5,217.5C 991.5,224.833 991.5,232.167 991.5,239.5C 964.833,239.5 938.167,239.5 911.5,239.5C 911.5,198.833 911.5,158.167 911.5,117.5C 937.833,117.5 964.167,117.5 990.5,117.5C 990.17,123.868 990.504,130.202 991.5,136.5C 992.497,129.532 992.83,122.532 992.5,115.5 Z"/></g>
<g><path style="opacity:1" fill="#2c2d2e" d="M 912.5,118.5 C 913.499,157.663 913.832,196.996 913.5,236.5C 938.836,236.333 964.169,236.5 989.5,237C 963.835,237.5 938.169,237.667 912.5,237.5C 912.5,197.833 912.5,158.167 912.5,118.5 Z"/></g>
<g><path style="opacity:1" fill="#232325" d="M 935.5,137.5 C 934.167,147.167 934.167,156.833 935.5,166.5C 935.5,166.833 935.5,167.167 935.5,167.5C 938.962,168.482 942.629,168.815 946.5,168.5C 958.655,169.495 970.989,169.829 983.5,169.5C 983.5,175.167 983.5,180.833 983.5,186.5C 970.989,186.171 958.655,186.505 946.5,187.5C 942.629,187.185 938.962,187.518 935.5,188.5C 935.5,188.833 935.5,189.167 935.5,189.5C 935.5,191.5 935.5,193.5 935.5,195.5C 934.819,193.842 933.985,192.175 933,190.5C 932.333,197.833 932.333,205.167 933,212.5C 933.198,210.618 933.698,208.952 934.5,207.5C 934.253,210.939 934.586,214.272 935.5,217.5C 939.392,218.624 944.059,219.291 949.5,219.5C 962.323,220.495 975.323,220.829 988.5,220.5C 988.5,225.5 988.5,230.5 988.5,235.5C 963.833,235.5 939.167,235.5 914.5,235.5C 914.5,196.833 914.5,158.167 914.5,119.5C 939.167,119.5 963.833,119.5 988.5,119.5C 988.5,124.167 988.5,128.833 988.5,133.5C 972.497,133.333 956.497,133.5 940.5,134C 956.833,134.333 973.167,134.667 989.5,135C 971.167,135.333 952.833,135.667 934.5,136C 935.056,136.383 935.389,136.883 935.5,137.5 Z"/></g>
<g><path style="opacity:1" fill="#cee3ee" d="M 341.5,125.5 C 336.992,125.133 332.659,124.133 328.5,122.5C 326.723,121.4 324.723,120.566 322.5,120C 318.179,119.501 313.846,119.334 309.5,119.5C 298.833,119.5 288.167,119.5 277.5,119.5C 272.308,119.273 267.308,120.107 262.5,122C 261.058,122.377 260.058,123.21 259.5,124.5C 256.43,124.368 253.43,124.701 250.5,125.5C 251.574,124.115 252.907,122.949 254.5,122C 259.301,121.622 263.968,120.622 268.5,119C 287.5,118.333 306.5,118.333 325.5,119C 330.323,119.742 334.989,121.075 339.5,123C 340.756,123.417 341.423,124.25 341.5,125.5 Z"/></g>
<g><path style="opacity:1" fill="#8cb3ce" d="M 309.5,119.5 C 313.846,119.334 318.179,119.501 322.5,120C 324.723,120.566 326.723,121.4 328.5,122.5C 322.043,121.429 315.71,120.429 309.5,119.5 Z"/></g>
<g><path style="opacity:1" fill="#127bb3" d="M 277.5,119.5 C 288.167,119.5 298.833,119.5 309.5,119.5C 315.71,120.429 322.043,121.429 328.5,122.5C 332.659,124.133 336.992,125.133 341.5,125.5C 341.833,125.5 342.167,125.5 342.5,125.5C 352.421,130.124 362.421,134.791 372.5,139.5C 409.106,162.283 433.439,194.616 445.5,236.5C 448.329,247.304 449.662,258.304 449.5,269.5C 449.666,279.506 449.5,289.506 449,299.5C 447.885,301 447.052,302.667 446.5,304.5C 447.672,306.823 447.672,309.156 446.5,311.5C 445.601,320.098 443.601,328.431 440.5,336.5C 436.172,350.828 429.005,363.495 419,374.5C 415.355,382.152 410.189,388.652 403.5,394C 386.249,409.954 366.583,421.787 344.5,429.5C 333.39,432.64 322.057,434.64 310.5,435.5C 300.135,435.733 289.802,435.4 279.5,434.5C 271.584,434.465 263.917,433.132 256.5,430.5C 257.097,429.861 257.93,429.528 259,429.5C 265.061,431.213 271.228,432.213 277.5,432.5C 288.047,434.401 298.713,434.901 309.5,434C 308.167,433.333 308.167,432.667 309.5,432C 306.183,431.502 302.85,431.335 299.5,431.5C 298.957,431.44 298.624,431.107 298.5,430.5C 303.411,429.492 303.745,427.658 299.5,425C 300.67,422.815 301.836,420.649 303,418.5C 304.667,419.167 306.333,419.833 308,420.5C 308.5,419.5 309,418.5 309.5,417.5C 306.973,415.146 304.806,412.479 303,409.5C 301.748,411.001 300.748,412.668 300,414.5C 298.175,409.244 297.675,403.911 298.5,398.5C 297.5,397.5 296.5,396.5 295.5,395.5C 293.249,396.695 290.915,397.695 288.5,398.5C 287.061,396.64 285.395,394.973 283.5,393.5C 282.5,394.833 281.5,394.833 280.5,393.5C 278.577,395.176 276.244,395.51 273.5,394.5C 273.833,392.5 274.167,390.5 274.5,388.5C 271.203,388.671 270.869,388.005 273.5,386.5C 270.286,385.063 267.286,383.397 264.5,381.5C 282.216,386.631 300.216,387.797 318.5,385C 321.374,384.058 324.04,382.891 326.5,381.5C 362.151,370.516 385.484,347.182 396.5,311.5C 400.167,305.838 401.834,299.505 401.5,292.5C 401.5,289.167 401.5,285.833 401.5,282.5C 404.047,264.562 401.047,247.562 392.5,231.5C 369.417,185.779 332.083,165.279 280.5,170C 274.32,171.398 268.32,173.231 262.5,175.5C 251.111,179.064 240.778,184.564 231.5,192C 229.859,193.129 228.859,194.629 228.5,196.5C 213.943,209.607 203.943,225.607 198.5,244.5C 196.371,249.875 194.871,255.541 194,261.5C 193.333,271.167 193.333,280.833 194,290.5C 194.098,293.522 194.932,296.189 196.5,298.5C 199.622,316.885 206.622,333.552 217.5,348.5C 215.01,349.108 213.676,350.775 213.5,353.5C 214.626,356.371 215.793,359.038 217,361.5C 216.586,361.957 216.086,362.291 215.5,362.5C 214.073,359.91 211.907,358.244 209,357.5C 205.463,358.643 204.296,360.809 205.5,364C 202.211,364.882 198.877,365.548 195.5,366C 192.633,370.591 192.966,374.924 196.5,379C 195.234,379.309 194.067,379.809 193,380.5C 192,379.5 191,378.5 190,377.5C 187.89,380.18 186.057,382.846 184.5,385.5C 171.32,368.81 160.987,350.477 153.5,330.5C 143.199,296.204 143.032,261.87 153,227.5C 155.411,221.589 157.577,215.589 159.5,209.5C 178.291,169.044 208.624,141.044 250.5,125.5C 253.43,124.701 256.43,124.368 259.5,124.5C 266.053,124.418 272.053,122.752 277.5,119.5 Z"/></g>
<g><path style="opacity:1" fill="#6f9fc1" d="M 277.5,119.5 C 272.053,122.752 266.053,124.418 259.5,124.5C 260.058,123.21 261.058,122.377 262.5,122C 267.308,120.107 272.308,119.273 277.5,119.5 Z"/></g>
<g><path style="opacity:1" fill="#d4e7f0" d="M 342.5,125.5 C 351.516,127.562 360.182,130.729 368.5,135C 370.041,136.371 371.375,137.871 372.5,139.5C 362.421,134.791 352.421,130.124 342.5,125.5 Z"/></g>
<g><path style="opacity:1" fill="#a9a9a9" d="M 1172.5,135.5 C 1168.1,135.294 1163.77,135.627 1159.5,136.5C 1160.87,134.041 1163.04,133.041 1166,133.5C 1168.54,133.336 1170.71,134.003 1172.5,135.5 Z"/></g>
<g><path style="opacity:1" fill="#626262" d="M 841.5,138.5 C 836.797,138.437 832.13,138.771 827.5,139.5C 827.611,138.883 827.944,138.383 828.5,138C 833.02,137.186 837.354,137.353 841.5,138.5 Z"/></g>
<g><path style="opacity:1" fill="#606061" d="M 712.5,138.5 C 707.819,138.669 703.152,139.002 698.5,139.5C 698.611,138.883 698.944,138.383 699.5,138C 704.02,137.186 708.354,137.353 712.5,138.5 Z"/></g>
<g><path style="opacity:1" fill="#a4a3a4" d="M 935.5,137.5 C 954.833,137.5 974.167,137.5 993.5,137.5C 974.682,138.85 955.682,139.517 936.5,139.5C 936.5,148.167 936.5,156.833 936.5,165.5C 946.348,165.173 956.014,165.506 965.5,166.5C 955.5,166.5 945.5,166.5 935.5,166.5C 934.167,156.833 934.167,147.167 935.5,137.5 Z"/></g>
<g><path style="opacity:1" fill="#263653" d="M 430.5,117.5 C 450.809,141.108 465.143,168.108 473.5,198.5C 473.5,199.167 473.5,199.833 473.5,200.5C 466.242,181.315 455.909,163.982 442.5,148.5C 442.351,147.448 442.517,146.448 443,145.5C 444.878,147.043 446.378,148.876 447.5,151C 448.725,151.563 449.725,151.23 450.5,150C 446.33,142.524 441.83,135.357 437,128.5C 436.138,130.087 435.471,131.754 435,133.5C 433.989,132.663 432.822,132.33 431.5,132.5C 431.549,129.901 432.549,127.734 434.5,126C 432.5,123.333 430.5,120.667 428.5,118C 429.094,117.536 429.761,117.369 430.5,117.5 Z"/></g>
<g><path style="opacity:1" fill="#ecebe9" d="M 597.5,188.5 C 588.646,190.304 579.646,190.971 570.5,190.5C 569.5,190.5 568.5,190.5 567.5,190.5C 570.972,174.917 576.139,159.917 583,145.5C 589.336,159.341 594.169,173.674 597.5,188.5 Z"/></g>
<g><path style="opacity:1" fill="#999798" d="M 1194.5,147.5 C 1193.08,150.349 1191.08,151.016 1188.5,149.5C 1190.5,148.833 1192.5,148.167 1194.5,147.5 Z"/></g>
<g><path style="opacity:1" fill="#909090" d="M 1062.5,163.5 C 1065.83,163.018 1068.5,164.018 1070.5,166.5C 1067.17,166.982 1064.5,165.982 1062.5,163.5 Z"/></g>
<g><path style="opacity:1" fill="#8e8d8d" d="M 935.5,167.5 C 935.5,167.167 935.5,166.833 935.5,166.5C 945.5,166.5 955.5,166.5 965.5,166.5C 972.5,166.5 979.5,166.5 986.5,166.5C 986.5,174.167 986.5,181.833 986.5,189.5C 982.167,189.5 977.833,189.5 973.5,189.5C 960.833,189.5 948.167,189.5 935.5,189.5C 935.5,189.167 935.5,188.833 935.5,188.5C 952.167,188.5 968.833,188.5 985.5,188.5C 985.5,181.5 985.5,174.5 985.5,167.5C 968.833,167.5 952.167,167.5 935.5,167.5 Z"/></g>
<g><path style="opacity:1" fill="#5a5a5b" d="M 935.5,167.5 C 952.167,167.5 968.833,167.5 985.5,167.5C 985.5,174.5 985.5,181.5 985.5,188.5C 968.833,188.5 952.167,188.5 935.5,188.5C 938.962,187.518 942.629,187.185 946.5,187.5C 959.167,187.5 971.833,187.5 984.5,187.5C 984.5,181.167 984.5,174.833 984.5,168.5C 971.833,168.5 959.167,168.5 946.5,168.5C 942.629,168.815 938.962,168.482 935.5,167.5 Z"/></g>
<g><path style="opacity:1" fill="#d0cfce" d="M 957.5,114.5 C 941.5,114.5 925.5,114.5 909.5,114.5C 909.5,142.167 909.5,169.833 909.5,197.5C 908.502,169.672 908.169,141.672 908.5,113.5C 925.009,113.17 941.342,113.504 957.5,114.5 Z"/></g>
<g><path style="opacity:1" fill="#f2f1ee" d="M 392.5,231.5 C 394.082,240.746 396.582,249.746 400,258.5C 401.098,266.464 401.598,274.464 401.5,282.5C 401.5,285.833 401.5,289.167 401.5,292.5C 399.975,298.759 398.308,305.092 396.5,311.5C 385.484,347.182 362.151,370.516 326.5,381.5C 312.996,384.386 299.33,385.22 285.5,384C 277.885,382.177 270.218,380.677 262.5,379.5C 253.143,376.322 244.477,371.822 236.5,366C 229.996,360.329 223.663,354.495 217.5,348.5C 206.622,333.552 199.622,316.885 196.5,298.5C 194.712,280.389 195.378,262.389 198.5,244.5C 203.943,225.607 213.943,209.607 228.5,196.5C 236.409,194.87 242.742,190.703 247.5,184C 253.464,182.69 258.464,179.856 262.5,175.5C 268.32,173.231 274.32,171.398 280.5,170C 332.083,165.279 369.417,185.779 392.5,231.5 Z"/></g>
<g><path style="opacity:1" fill="#545455" d="M 673.5,169.5 C 672.979,173.481 672.646,177.481 672.5,181.5C 671.357,178.024 671.19,174.358 672,170.5C 672.383,169.944 672.883,169.611 673.5,169.5 Z"/></g>
<g><path style="opacity:1" fill="#757575" d="M 777.5,160.5 C 776.683,169.809 776.35,179.143 776.5,188.5C 775.217,185.42 774.55,182.086 774.5,178.5C 774.718,172.217 775.718,166.217 777.5,160.5 Z"/></g>
<g><path style="opacity:1" fill="#9f9f9f" d="M 675.5,163.5 C 674.623,172.133 674.289,180.8 674.5,189.5C 673.232,187.095 672.565,184.428 672.5,181.5C 672.646,177.481 672.979,173.481 673.5,169.5C 673.259,167.102 673.926,165.102 675.5,163.5 Z"/></g>
<g><path style="opacity:1" fill="#c6deec" d="M 262.5,175.5 C 258.464,179.856 253.464,182.69 247.5,184C 242.742,190.703 236.409,194.87 228.5,196.5C 228.859,194.629 229.859,193.129 231.5,192C 240.778,184.564 251.111,179.064 262.5,175.5 Z"/></g>
<g><path style="opacity:1" fill="#414142" d="M 946.5,168.5 C 959.167,168.5 971.833,168.5 984.5,168.5C 984.5,174.833 984.5,181.167 984.5,187.5C 971.833,187.5 959.167,187.5 946.5,187.5C 958.655,186.505 970.989,186.171 983.5,186.5C 983.5,180.833 983.5,175.167 983.5,169.5C 970.989,169.829 958.655,169.495 946.5,168.5 Z"/></g>
<g><path style="opacity:1" fill="#757576" d="M 597.5,188.5 C 599.104,189.287 599.771,190.62 599.5,192.5C 589.607,192.905 579.941,192.239 570.5,190.5C 579.646,190.971 588.646,190.304 597.5,188.5 Z"/></g>
<g><path style="opacity:1" fill="#a8acb3" d="M 473.5,198.5 C 476.136,201.261 476.969,204.594 476,208.5C 474.659,205.978 473.826,203.311 473.5,200.5C 473.5,199.833 473.5,199.167 473.5,198.5 Z"/></g>
<g><path style="opacity:1" fill="#474748" d="M 935.5,195.5 C 934.64,199.434 934.307,203.434 934.5,207.5C 933.698,208.952 933.198,210.618 933,212.5C 932.333,205.167 932.333,197.833 933,190.5C 933.985,192.175 934.819,193.842 935.5,195.5 Z"/></g>
<g><path style="opacity:1" fill="#828282" d="M 1183.5,198.5 C 1187.5,202.5 1187.5,206.5 1183.5,210.5C 1183.5,206.5 1183.5,202.5 1183.5,198.5 Z"/></g>
<g><path style="opacity:1" fill="#acb4c3" d="M 127.5,194.5 C 126.578,199.673 124.578,204.34 121.5,208.5C 122.449,203.28 124.449,198.614 127.5,194.5 Z"/></g>
<g><path style="opacity:1" fill="#a2a2a1" d="M 1210.5,195.5 C 1211.16,197.81 1211.5,200.31 1211.5,203C 1211.7,206.805 1211.03,210.305 1209.5,213.5C 1210.31,207.536 1210.64,201.536 1210.5,195.5 Z"/></g>
<g><path style="opacity:1" fill="#b0b0af" d="M 935.5,189.5 C 948.167,189.5 960.833,189.5 973.5,189.5C 961.345,190.495 949.011,190.829 936.5,190.5C 936.5,199.167 936.5,207.833 936.5,216.5C 938.167,216.5 939.833,216.5 941.5,216.5C 941.5,216.833 941.5,217.167 941.5,217.5C 939.5,217.5 937.5,217.5 935.5,217.5C 934.586,214.272 934.253,210.939 934.5,207.5C 934.307,203.434 934.64,199.434 935.5,195.5C 935.5,193.5 935.5,191.5 935.5,189.5 Z"/></g>
<g><path style="opacity:1" fill="#909090" d="M 1010.5,211.5 C 1011.57,213.701 1012.23,216.035 1012.5,218.5C 1009.78,216.618 1009.12,214.285 1010.5,211.5 Z"/></g>
<g><path style="opacity:1" fill="#8e8e8d" d="M 1147.5,213.5 C 1150.33,214.079 1152.66,215.412 1154.5,217.5C 1151.39,217.445 1149.05,216.112 1147.5,213.5 Z"/></g>
<g><path style="opacity:1" fill="#aaaaab" d="M 693.5,213.5 C 703.387,215.808 713.387,216.142 723.5,214.5C 723.389,215.117 723.056,215.617 722.5,216C 714.875,217.372 707.208,217.706 699.5,217C 696.975,216.576 694.975,215.41 693.5,213.5 Z"/></g>
<g><path style="opacity:1" fill="#bababa" d="M 851.5,214.5 C 851.082,215.222 850.416,215.722 849.5,216C 844.851,216.664 840.184,217.164 835.5,217.5C 831.883,217.602 828.55,216.935 825.5,215.5C 834.2,215.711 842.867,215.377 851.5,214.5 Z"/></g>
<g><path style="opacity:1" fill="#c6c6c5" d="M 1043.5,215.5 C 1051.75,217.684 1060.08,218.018 1068.5,216.5C 1065.32,218.867 1061.65,219.867 1057.5,219.5C 1052.28,219.699 1047.61,218.365 1043.5,215.5 Z"/></g>
<g><path style="opacity:1" fill="#aaa9a8" d="M 1155.5,217.5 C 1161.5,217.5 1167.5,217.5 1173.5,217.5C 1171.19,219.047 1168.53,219.713 1165.5,219.5C 1161.88,219.602 1158.55,218.935 1155.5,217.5 Z"/></g>
<g><path style="opacity:1" fill="#919191" d="M 554.5,226.5 C 554.498,230.165 553.165,233.165 550.5,235.5C 551.597,232.314 552.93,229.314 554.5,226.5 Z"/></g>
<g><path style="opacity:1" fill="#4d4d4d" d="M 640.5,235.5 C 641.434,236.568 641.768,237.901 641.5,239.5C 632.651,239.826 623.984,239.493 615.5,238.5C 623.161,237.446 630.827,237.279 638.5,238C 639.756,237.583 640.423,236.75 640.5,235.5 Z"/></g>
<g><path style="opacity:1" fill="#deecf3" d="M 445.5,236.5 C 447.173,237.343 448.34,238.676 449,240.5C 455.823,271.969 454.157,302.969 444,333.5C 443.578,335.426 442.411,336.426 440.5,336.5C 443.601,328.431 445.601,320.098 446.5,311.5C 447.117,311.389 447.617,311.056 448,310.5C 450.503,297.627 451.503,284.627 451,271.5C 450.722,270.584 450.222,269.918 449.5,269.5C 449.662,258.304 448.329,247.304 445.5,236.5 Z"/></g>
<g><path style="opacity:1" fill="#8f8f8f" d="M 911.5,115.5 C 911.5,116.167 911.5,116.833 911.5,117.5C 911.5,158.167 911.5,198.833 911.5,239.5C 938.167,239.5 964.833,239.5 991.5,239.5C 991.5,232.167 991.5,224.833 991.5,217.5C 977.5,217.5 963.5,217.5 949.5,217.5C 946.833,217.5 944.167,217.5 941.5,217.5C 941.5,217.167 941.5,216.833 941.5,216.5C 958.5,216.5 975.5,216.5 992.5,216.5C 992.5,224.5 992.5,232.5 992.5,240.5C 965.167,240.5 937.833,240.5 910.5,240.5C 910.5,232.833 910.5,225.167 910.5,217.5C 910.168,183.329 910.502,149.329 911.5,115.5 Z"/></g>
<g><path style="opacity:1" fill="#0c0c0d" d="M 935.5,217.5 C 937.5,217.5 939.5,217.5 941.5,217.5C 944.167,217.5 946.833,217.5 949.5,217.5C 962.99,218.496 976.656,218.829 990.5,218.5C 990.662,220.527 990.495,222.527 990,224.5C 989.506,222.866 989.34,221.199 989.5,219.5C 976.167,219.5 962.833,219.5 949.5,219.5C 944.059,219.291 939.392,218.624 935.5,217.5 Z"/></g>
<g><path style="opacity:1" fill="#c5c5c5" d="M 1079.5,237.5 C 1077.73,239.113 1076.56,241.113 1076,243.5C 1074.61,244.554 1073.11,244.72 1071.5,244C 1072.33,243.085 1073.33,242.419 1074.5,242C 1064.99,241.83 1055.66,241.33 1046.5,240.5C 1057.67,241.059 1068.67,240.059 1079.5,237.5 Z"/></g>
<g><path style="opacity:1" fill="#aad0e6" d="M 392.5,231.5 C 401.047,247.562 404.047,264.562 401.5,282.5C 401.598,274.464 401.098,266.464 400,258.5C 396.582,249.746 394.082,240.746 392.5,231.5 Z"/></g>
<g><path style="opacity:1" fill="#a3a2a2" d="M 1149.5,239.5 C 1158.81,240.354 1168.14,240.687 1177.5,240.5C 1173.68,241.166 1169.68,241.499 1165.5,241.5C 1159.9,241.724 1154.57,241.057 1149.5,239.5 Z"/></g>
<g><path style="opacity:1" fill="#d4e8f2" d="M 159.5,209.5 C 157.577,215.589 155.411,221.589 153,227.5C 143.032,261.87 143.199,296.204 153.5,330.5C 152.624,330.631 151.957,330.298 151.5,329.5C 141.751,297.444 140.918,265.111 149,232.5C 151.133,225.769 153.466,219.102 156,212.5C 157.039,211.29 158.206,210.29 159.5,209.5 Z"/></g>
<g><path style="opacity:1" fill="#798496" d="M 112.5,244.5 C 109.848,266.165 109.848,287.832 112.5,309.5C 111.833,308.833 111.167,308.167 110.5,307.5C 109.387,289.525 109.221,271.525 110,253.5C 110.204,250.203 111.037,247.203 112.5,244.5 Z"/></g>
<g><path style="opacity:1" fill="#b2b1b1" d="M 648.5,272.5 C 643.5,272.5 638.5,272.5 633.5,272.5C 633.831,296.672 633.498,320.672 632.5,344.5C 632.5,320.167 632.5,295.833 632.5,271.5C 638.026,271.179 643.36,271.512 648.5,272.5 Z"/></g>
<g><path style="opacity:1" fill="#242426" d="M 738.5,299.5 C 734.766,302.567 732.099,301.9 730.5,297.5C 728.5,296.024 726.833,294.191 725.5,292C 723.414,291.685 721.414,291.185 719.5,290.5C 715.833,287.833 712.167,287.833 708.5,290.5C 699.468,293.003 696.968,298.67 701,307.5C 704.081,310.293 707.581,312.46 711.5,314C 720.167,316.667 728.833,319.333 737.5,322C 743.514,325.84 747.847,331.006 750.5,337.5C 751.822,344.092 752.489,350.758 752.5,357.5C 749.35,370.816 741.016,378.983 727.5,382C 704.845,387.928 687.012,381.095 674,361.5C 673.104,358.975 673.604,356.808 675.5,355C 679.781,352.027 684.447,349.86 689.5,348.5C 692.223,352.72 695.556,356.553 699.5,360C 701.407,361.122 703.407,361.955 705.5,362.5C 711.316,365.291 716.983,364.957 722.5,361.5C 730.037,358.753 732.537,353.419 730,345.5C 724.289,338.724 717.122,335.39 708.5,335.5C 706.562,333.837 704.228,333.171 701.5,333.5C 691.508,331.182 684.174,325.515 679.5,316.5C 678.698,309.196 678.365,301.862 678.5,294.5C 679.226,291.821 680.059,289.154 681,286.5C 693.129,271.061 708.629,266.561 727.5,273C 739.217,275.885 746.884,283.052 750.5,294.5C 746.277,295.611 742.277,297.278 738.5,299.5 Z"/></g>
<g><path style="opacity:1" fill="#545455" d="M 877.5,273.5 C 868.84,272.201 860.174,272.201 851.5,273.5C 851.611,272.883 851.944,272.383 852.5,272C 860.167,271.333 867.833,271.333 875.5,272C 876.416,272.278 877.082,272.778 877.5,273.5 Z"/></g>
<g><path style="opacity:1" fill="#232325" d="M 1157.5,271.5 C 1168.54,270.537 1179.21,272.037 1189.5,276C 1196.12,279.449 1200.78,284.616 1203.5,291.5C 1203.39,292.442 1203.06,293.275 1202.5,294C 1197.01,296.579 1191.67,299.412 1186.5,302.5C 1181.99,291.742 1173.99,287.576 1162.5,290C 1153.21,293.556 1150.88,299.889 1155.5,309C 1158.83,310.667 1162.17,312.333 1165.5,314C 1174.64,316.685 1183.64,319.685 1192.5,323C 1204.34,331.532 1208.84,343.032 1206,357.5C 1203.72,370.276 1196.22,377.943 1183.5,380.5C 1179.88,380.899 1176.55,381.899 1173.5,383.5C 1168.83,383.5 1164.17,383.5 1159.5,383.5C 1156.5,381.723 1153.16,380.723 1149.5,380.5C 1139.77,376.95 1132.27,370.616 1127,361.5C 1126.33,359.833 1126.33,358.167 1127,356.5C 1131.3,352.931 1136.14,350.264 1141.5,348.5C 1144.99,352.16 1148.32,355.994 1151.5,360C 1153.81,360.991 1156.14,361.824 1158.5,362.5C 1164.18,365.103 1169.85,365.103 1175.5,362.5C 1178.68,361.651 1181.35,359.985 1183.5,357.5C 1187.5,353.167 1187.5,348.833 1183.5,344.5C 1181.6,342.204 1179.27,340.371 1176.5,339C 1164.84,336.335 1153.51,332.669 1142.5,328C 1137,324.142 1133.66,318.975 1132.5,312.5C 1132.5,305.5 1132.5,298.5 1132.5,291.5C 1135.42,284.247 1140.42,278.914 1147.5,275.5C 1150.99,274.342 1154.32,273.009 1157.5,271.5 Z"/></g>
<g><path style="opacity:1" fill="#accfe7" d="M 198.5,244.5 C 195.378,262.389 194.712,280.389 196.5,298.5C 194.932,296.189 194.098,293.522 194,290.5C 193.333,280.833 193.333,271.167 194,261.5C 194.871,255.541 196.371,249.875 198.5,244.5 Z"/></g>
<g><path style="opacity:1" fill="#80807f" d="M 521.5,273.5 C 527.979,272.509 534.646,272.176 541.5,272.5C 541.5,276.833 541.5,281.167 541.5,285.5C 541.167,285.5 540.833,285.5 540.5,285.5C 540.5,281.5 540.5,277.5 540.5,273.5C 534.167,273.5 527.833,273.5 521.5,273.5 Z"/></g>
<g><path style="opacity:1" fill="#232425" d="M 877.5,273.5 C 890.248,275.072 900.414,281.072 908,291.5C 908.667,292.833 908.667,294.167 908,295.5C 903.592,298.91 898.925,301.91 894,304.5C 890.541,301.001 886.707,297.834 882.5,295C 878.371,293.051 874.037,291.884 869.5,291.5C 864.622,290.31 859.622,290.477 854.5,292C 851.771,292.566 849.771,294.066 848.5,296.5C 846.139,297.435 843.972,298.768 842,300.5C 832.781,316.777 832.114,333.444 840,350.5C 844.839,355.832 850.673,359.498 857.5,361.5C 860.186,362.991 863.186,363.657 866.5,363.5C 870.117,363.602 873.45,362.935 876.5,361.5C 881.913,361.652 886.246,359.652 889.5,355.5C 890.461,353.735 890.795,351.735 890.5,349.5C 891.479,346.375 891.813,343.042 891.5,339.5C 882.5,339.5 873.5,339.5 864.5,339.5C 864.5,333.833 864.5,328.167 864.5,322.5C 880.167,322.5 895.833,322.5 911.5,322.5C 911.816,337.245 911.483,351.912 910.5,366.5C 902.158,374.671 892.158,379.671 880.5,381.5C 868.485,381.576 856.485,381.243 844.5,380.5C 831.188,374.522 821.522,364.855 815.5,351.5C 814.705,347.524 814.038,343.524 813.5,339.5C 812.232,330.178 812.232,320.845 813.5,311.5C 817.174,289.826 829.84,277.16 851.5,273.5C 860.174,272.201 868.84,272.201 877.5,273.5 Z"/></g>
<g><path style="opacity:1" fill="#838283" d="M 1087.5,382.5 C 1083.96,382.813 1080.62,382.479 1077.5,381.5C 1080.83,381.5 1084.17,381.5 1087.5,381.5C 1087.5,359.5 1087.5,337.5 1087.5,315.5C 1087.5,307.833 1087.5,300.167 1087.5,292.5C 1089.5,292.5 1091.5,292.5 1093.5,292.5C 1094.71,291.766 1096.04,291.433 1097.5,291.5C 1103.5,291.5 1109.5,291.5 1115.5,291.5C 1115.5,285.5 1115.5,279.5 1115.5,273.5C 1089.5,273.5 1063.5,273.5 1037.5,273.5C 1037.5,279.5 1037.5,285.5 1037.5,291.5C 1043.83,291.5 1050.17,291.5 1056.5,291.5C 1060.27,291.244 1063.94,291.577 1067.5,292.5C 1067.5,321.833 1067.5,351.167 1067.5,380.5C 1066.45,351.67 1065.78,322.67 1065.5,293.5C 1063.83,293.5 1062.17,293.5 1060.5,293.5C 1052.49,293.269 1044.49,292.935 1036.5,292.5C 1036.5,285.833 1036.5,279.167 1036.5,272.5C 1063.17,272.5 1089.83,272.5 1116.5,272.5C 1116.5,279.5 1116.5,286.5 1116.5,293.5C 1107.17,293.5 1097.83,293.5 1088.5,293.5C 1088.83,323.338 1088.5,353.005 1087.5,382.5 Z"/></g>
<g><path style="opacity:1" fill="#757576" d="M 1157.5,271.5 C 1154.32,273.009 1150.99,274.342 1147.5,275.5C 1150.1,272.54 1153.43,271.206 1157.5,271.5 Z"/></g>
<g><path style="opacity:1" fill="#0d0d0f" d="M 565.5,273.5 C 570.167,273.5 574.833,273.5 579.5,273.5C 579.5,274.167 579.167,274.5 578.5,274.5C 574.5,274.5 570.5,274.5 566.5,274.5C 566.5,309.833 566.5,345.167 566.5,380.5C 565.502,345.004 565.168,309.337 565.5,273.5 Z"/></g>
<g><path style="opacity:1" fill="#232325" d="M 579.5,273.5 C 584.542,273.015 588.376,275.015 591,279.5C 603.927,301.029 617.094,322.362 630.5,343.5C 630.81,345.144 631.81,346.144 633.5,346.5C 633.938,346.435 634.272,346.601 634.5,347C 632.068,348.087 632.402,348.587 635.5,348.5C 635.5,324.5 635.5,300.5 635.5,276.5C 641.167,276.5 646.833,276.5 652.5,276.5C 652.5,310.833 652.5,345.167 652.5,379.5C 647.405,379.221 642.405,379.555 637.5,380.5C 635.833,380.5 634.167,380.5 632.5,380.5C 620.843,361.189 608.676,342.189 596,323.5C 593.833,319.167 591.667,314.833 589.5,310.5C 588.675,309.614 587.675,309.281 586.5,309.5C 585.596,310.209 585.263,311.209 585.5,312.5C 583.511,334.475 582.844,356.808 583.5,379.5C 583.167,379.5 582.833,379.5 582.5,379.5C 577.5,379.5 572.5,379.5 567.5,379.5C 567.5,344.833 567.5,310.167 567.5,275.5C 571.371,275.815 575.038,275.482 578.5,274.5C 579.167,274.5 579.5,274.167 579.5,273.5 Z"/></g>
<g><path style="opacity:1" fill="#0d0e0f" d="M 653.5,273.5 C 647.588,275.456 641.255,276.123 634.5,275.5C 640.412,273.544 646.745,272.877 653.5,273.5 Z"/></g>
<g><path style="opacity:1" fill="#161716" d="M 933.5,273.5 C 940.584,272.874 947.25,273.541 953.5,275.5C 947.167,275.5 940.833,275.5 934.5,275.5C 934.5,310.5 934.5,345.5 934.5,380.5C 933.502,345.004 933.168,309.337 933.5,273.5 Z"/></g>
<g><path style="opacity:1" fill="#0c0c0c" d="M 1000.5,273.5 C 1007.58,272.874 1014.25,273.541 1020.5,275.5C 1014.17,275.5 1007.83,275.5 1001.5,275.5C 1001.5,286.5 1001.5,297.5 1001.5,308.5C 1000.5,298.219 1000.16,286.553 1000.5,273.5 Z"/></g>
<g><path style="opacity:1" fill="#151515" d="M 1097.5,291.5 C 1102.68,290.685 1108.01,290.018 1113.5,289.5C 1112.92,285.19 1112.59,280.857 1112.5,276.5C 1088.5,276.5 1064.5,276.5 1040.5,276.5C 1040.5,281.167 1040.5,285.833 1040.5,290.5C 1046.03,290.179 1051.36,290.512 1056.5,291.5C 1050.17,291.5 1043.83,291.5 1037.5,291.5C 1037.5,285.5 1037.5,279.5 1037.5,273.5C 1063.5,273.5 1089.5,273.5 1115.5,273.5C 1115.5,279.5 1115.5,285.5 1115.5,291.5C 1109.5,291.5 1103.5,291.5 1097.5,291.5 Z"/></g>
<g><path style="opacity:1" fill="#4c4c4c" d="M 953.5,275.5 C 953.672,276.492 953.338,277.158 952.5,277.5C 947.025,276.511 941.358,276.178 935.5,276.5C 935.5,310.833 935.5,345.167 935.5,379.5C 940.833,379.5 946.167,379.5 951.5,379.5C 946.025,380.489 940.358,380.822 934.5,380.5C 934.5,345.5 934.5,310.5 934.5,275.5C 940.833,275.5 947.167,275.5 953.5,275.5 Z"/></g>
<g><path style="opacity:1" fill="#171819" d="M 521.5,273.5 C 527.833,273.5 534.167,273.5 540.5,273.5C 540.5,277.5 540.5,281.5 540.5,285.5C 540.5,317.167 540.5,348.833 540.5,380.5C 534.167,380.5 527.833,380.5 521.5,380.5C 521.5,344.833 521.5,309.167 521.5,273.5 Z"/></g>
<g><path style="opacity:1" fill="#232525" d="M 522.5,276.5 C 528.167,276.5 533.833,276.5 539.5,276.5C 539.5,310.833 539.5,345.167 539.5,379.5C 533.833,379.5 528.167,379.5 522.5,379.5C 522.5,345.167 522.5,310.833 522.5,276.5 Z"/></g>
<g><path style="opacity:1" fill="#232325" d="M 1000.5,273.5 C 1000.16,286.553 1000.5,298.219 1001.5,308.5C 1002.49,298.013 1002.83,287.346 1002.5,276.5C 1008.17,276.5 1013.83,276.5 1019.5,276.5C 1019.5,310.833 1019.5,345.167 1019.5,379.5C 1013.83,379.5 1008.17,379.5 1002.5,379.5C 1002.67,370.827 1002.5,362.16 1002,353.5C 1001.5,362.494 1001.33,371.494 1001.5,380.5C 1000.21,368.818 1000.21,356.984 1001.5,345C 1001.09,341.973 1000.42,339.14 999.5,336.5C 985.01,335.504 970.343,335.171 955.5,335.5C 955.5,338.833 955.5,342.167 955.5,345.5C 954.835,343.302 954.168,340.969 953.5,338.5C 952.501,352.15 952.167,365.817 952.5,379.5C 952.167,379.5 951.833,379.5 951.5,379.5C 946.167,379.5 940.833,379.5 935.5,379.5C 935.5,345.167 935.5,310.833 935.5,276.5C 941.358,276.178 947.025,276.511 952.5,277.5C 952.5,280.167 952.5,282.833 952.5,285.5C 952.168,294.857 952.502,304.19 953.5,313.5C 954.167,310.023 954.834,306.689 955.5,303.5C 955.5,307.833 955.5,312.167 955.5,316.5C 958.833,316.5 962.167,316.5 965.5,316.5C 962.642,317.166 959.642,317.833 956.5,318.5C 970.822,319.666 985.155,319.833 999.5,319C 994.981,318.825 990.647,318.325 986.5,317.5C 990.833,317.5 995.167,317.5 999.5,317.5C 999.5,306.833 999.5,296.167 999.5,285.5C 999.183,281.298 999.517,277.298 1000.5,273.5 Z"/></g>
<g><path style="opacity:1" fill="#232325" d="M 1097.5,291.5 C 1096.04,291.433 1094.71,291.766 1093.5,292.5C 1091.39,291.532 1089.06,291.198 1086.5,291.5C 1085.53,320.808 1085.2,350.142 1085.5,379.5C 1080.17,379.5 1074.83,379.5 1069.5,379.5C 1069.79,349.748 1069.12,320.748 1067.5,292.5C 1063.94,291.577 1060.27,291.244 1056.5,291.5C 1051.36,290.512 1046.03,290.179 1040.5,290.5C 1040.5,285.833 1040.5,281.167 1040.5,276.5C 1064.5,276.5 1088.5,276.5 1112.5,276.5C 1112.59,280.857 1112.92,285.19 1113.5,289.5C 1108.01,290.018 1102.68,290.685 1097.5,291.5 Z"/></g>
<g><path style="opacity:1" fill="#90bad3" d="M 449.5,269.5 C 450.222,269.918 450.722,270.584 451,271.5C 451.503,284.627 450.503,297.627 448,310.5C 447.617,311.056 447.117,311.389 446.5,311.5C 447.672,309.156 447.672,306.823 446.5,304.5C 447.052,302.667 447.885,301 449,299.5C 449.5,289.506 449.666,279.506 449.5,269.5 Z"/></g>
<g><path style="opacity:1" fill="#4c4c4e" d="M 578.5,274.5 C 575.038,275.482 571.371,275.815 567.5,275.5C 567.5,310.167 567.5,344.833 567.5,379.5C 572.5,379.5 577.5,379.5 582.5,379.5C 577.36,380.488 572.026,380.821 566.5,380.5C 566.5,345.167 566.5,309.833 566.5,274.5C 570.5,274.5 574.5,274.5 578.5,274.5 Z"/></g>
<g><path style="opacity:1" fill="#656465" d="M 933.5,273.5 C 940.735,272.189 948.068,272.189 955.5,273.5C 955.5,281.5 955.5,289.5 955.5,297.5C 955.131,293.232 954.131,289.232 952.5,285.5C 952.5,282.833 952.5,280.167 952.5,277.5C 953.338,277.158 953.672,276.492 953.5,275.5C 947.25,273.541 940.584,272.874 933.5,273.5 Z"/></g>
<g><path style="opacity:1" fill="#454545" d="M 1020.5,275.5 C 1020.5,310.5 1020.5,345.5 1020.5,380.5C 1014.17,380.5 1007.83,380.5 1001.5,380.5C 1001.33,371.494 1001.5,362.494 1002,353.5C 1002.5,362.16 1002.67,370.827 1002.5,379.5C 1008.17,379.5 1013.83,379.5 1019.5,379.5C 1019.5,345.167 1019.5,310.833 1019.5,276.5C 1013.83,276.5 1008.17,276.5 1002.5,276.5C 1002.83,287.346 1002.49,298.013 1001.5,308.5C 1001.5,297.5 1001.5,286.5 1001.5,275.5C 1007.83,275.5 1014.17,275.5 1020.5,275.5 Z"/></g>
<g><path style="opacity:1" fill="#767677" d="M 565.5,273.5 C 565.168,309.337 565.502,345.004 566.5,380.5C 572.026,380.821 577.36,380.488 582.5,379.5C 582.833,379.5 583.167,379.5 583.5,379.5C 585.489,357.525 586.156,335.192 585.5,312.5C 585.263,311.209 585.596,310.209 586.5,309.5C 586.5,317.5 586.5,325.5 586.5,333.5C 586.5,349.833 586.5,366.167 586.5,382.5C 581.167,382.5 575.833,382.5 570.5,382.5C 568.5,382.5 566.5,382.5 564.5,382.5C 564.168,345.996 564.502,309.663 565.5,273.5 Z"/></g>
<g><path style="opacity:1" fill="#505051" d="M 653.5,273.5 C 654.498,309.329 654.832,345.329 654.5,381.5C 648.642,381.822 642.975,381.489 637.5,380.5C 642.405,379.555 647.405,379.221 652.5,379.5C 652.5,345.167 652.5,310.833 652.5,276.5C 646.833,276.5 641.167,276.5 635.5,276.5C 635.5,300.5 635.5,324.5 635.5,348.5C 632.402,348.587 632.068,348.087 634.5,347C 634.272,346.601 633.938,346.435 633.5,346.5C 634.489,322.908 634.823,299.241 634.5,275.5C 641.255,276.123 647.588,275.456 653.5,273.5 Z"/></g>
<g><path style="opacity:1" fill="#908e8e" d="M 653.5,273.5 C 653.5,273.167 653.5,272.833 653.5,272.5C 654.833,290.321 655.5,308.488 655.5,327C 655.5,345.336 655.167,363.503 654.5,381.5C 654.832,345.329 654.498,309.329 653.5,273.5 Z"/></g>
<g><path style="opacity:1" fill="#949494" d="M 719.5,290.5 C 715.833,290.5 712.167,290.5 708.5,290.5C 712.167,287.833 715.833,287.833 719.5,290.5 Z"/></g>
<g><path style="opacity:1" fill="#70706f" d="M 771.5,273.5 C 771.5,309.167 771.5,344.833 771.5,380.5C 777.833,380.5 784.167,380.5 790.5,380.5C 790.5,344.833 790.5,309.167 790.5,273.5C 791.494,283.987 791.828,294.654 791.5,305.5C 791.5,330.833 791.5,356.167 791.5,381.5C 787.5,381.5 783.5,381.5 779.5,381.5C 776.5,381.5 773.5,381.5 770.5,381.5C 770.168,345.329 770.502,309.329 771.5,273.5 Z"/></g>
<g><path style="opacity:1" fill="#161617" d="M 771.5,273.5 C 777.833,273.5 784.167,273.5 790.5,273.5C 790.5,309.167 790.5,344.833 790.5,380.5C 784.167,380.5 777.833,380.5 771.5,380.5C 771.5,344.833 771.5,309.167 771.5,273.5 Z"/></g>
<g><path style="opacity:1" fill="#222324" d="M 772.5,276.5 C 778.167,276.5 783.833,276.5 789.5,276.5C 789.5,310.833 789.5,345.167 789.5,379.5C 783.833,379.5 778.167,379.5 772.5,379.5C 772.5,345.167 772.5,310.833 772.5,276.5 Z"/></g>
<g><path style="opacity:1" fill="#a1a1a1" d="M 869.5,291.5 C 862.109,291.706 855.109,293.372 848.5,296.5C 849.771,294.066 851.771,292.566 854.5,292C 859.622,290.477 864.622,290.31 869.5,291.5 Z"/></g>
<g><path style="opacity:1" fill="#5e5e5f" d="M 648.5,272.5 C 650.167,272.5 651.833,272.5 653.5,272.5C 653.5,272.833 653.5,273.167 653.5,273.5C 646.745,272.877 640.412,273.544 634.5,275.5C 634.823,299.241 634.489,322.908 633.5,346.5C 631.81,346.144 630.81,345.144 630.5,343.5C 631.167,343.833 631.833,344.167 632.5,344.5C 633.498,320.672 633.831,296.672 633.5,272.5C 638.5,272.5 643.5,272.5 648.5,272.5 Z"/></g>
<g><path style="opacity:1" fill="#484849" d="M 952.5,285.5 C 954.131,289.232 955.131,293.232 955.5,297.5C 955.5,299.5 955.5,301.5 955.5,303.5C 954.834,306.689 954.167,310.023 953.5,313.5C 952.502,304.19 952.168,294.857 952.5,285.5 Z"/></g>
<g><path style="opacity:1" fill="#6c6b6b" d="M 1000.5,273.5 C 1007.31,272.509 1014.31,272.175 1021.5,272.5C 1022.5,308.999 1022.5,345.332 1021.5,381.5C 1014.17,381.5 1006.83,381.5 999.5,381.5C 999.5,366.5 999.5,351.5 999.5,336.5C 1000.42,339.14 1001.09,341.973 1001.5,345C 1000.21,356.984 1000.21,368.818 1001.5,380.5C 1007.83,380.5 1014.17,380.5 1020.5,380.5C 1020.5,345.5 1020.5,310.5 1020.5,275.5C 1014.25,273.541 1007.58,272.874 1000.5,273.5 Z"/></g>
<g><path style="opacity:1" fill="#707071" d="M 1132.5,291.5 C 1132.5,298.5 1132.5,305.5 1132.5,312.5C 1130.57,306.085 1130.07,299.418 1131,292.5C 1131.38,291.944 1131.88,291.611 1132.5,291.5 Z"/></g>
<g><path style="opacity:1" fill="#979797" d="M 521.5,273.5 C 521.5,309.167 521.5,344.833 521.5,380.5C 527.979,381.491 534.646,381.824 541.5,381.5C 534.687,382.491 527.687,382.825 520.5,382.5C 520.5,354.5 520.5,326.5 520.5,298.5C 520.174,289.983 520.507,281.65 521.5,273.5 Z"/></g>
<g><path style="opacity:1" fill="#989798" d="M 730.5,297.5 C 732.099,301.9 734.766,302.567 738.5,299.5C 738.586,300.496 738.252,301.329 737.5,302C 732.801,303.713 730.468,302.213 730.5,297.5 Z"/></g>
<g><path style="opacity:1" fill="#a2cae4" d="M 401.5,292.5 C 401.834,299.505 400.167,305.838 396.5,311.5C 398.308,305.092 399.975,298.759 401.5,292.5 Z"/></g>
<g><path style="opacity:1" fill="#c4c4c4" d="M 520.5,298.5 C 520.5,326.5 520.5,354.5 520.5,382.5C 519.168,372.021 518.501,361.188 518.5,350C 518.361,332.643 519.027,315.476 520.5,298.5 Z"/></g>
<g><path style="opacity:1" fill="#646364" d="M 678.5,294.5 C 678.365,301.862 678.698,309.196 679.5,316.5C 677.983,312.44 677.316,308.107 677.5,303.5C 677.502,300.314 677.835,297.314 678.5,294.5 Z"/></g>
<g><path style="opacity:1" fill="#2e3e5b" d="M 110.5,307.5 C 111.167,308.167 111.833,308.833 112.5,309.5C 116.916,333.747 124.916,356.747 136.5,378.5C 135.778,378.918 135.278,379.584 135,380.5C 134.667,380.167 134.333,379.833 134,379.5C 122.931,359.018 114.931,337.351 110,314.5C 109.204,311.961 109.371,309.628 110.5,307.5 Z"/></g>
<g><path style="opacity:1" fill="#636363" d="M 540.5,285.5 C 540.833,285.5 541.167,285.5 541.5,285.5C 542.616,317.664 542.616,349.664 541.5,381.5C 534.646,381.824 527.979,381.491 521.5,380.5C 527.833,380.5 534.167,380.5 540.5,380.5C 540.5,348.833 540.5,317.167 540.5,285.5 Z"/></g>
<g><path style="opacity:1" fill="#a8a8a7" d="M 955.5,273.5 C 956.496,287.323 956.829,301.323 956.5,315.5C 970.5,315.5 984.5,315.5 998.5,315.5C 998.173,305.319 998.506,295.319 999.5,285.5C 999.5,296.167 999.5,306.833 999.5,317.5C 995.167,317.5 990.833,317.5 986.5,317.5C 979.457,317.72 972.457,317.386 965.5,316.5C 962.167,316.5 958.833,316.5 955.5,316.5C 955.5,312.167 955.5,307.833 955.5,303.5C 955.5,301.5 955.5,299.5 955.5,297.5C 955.5,289.5 955.5,281.5 955.5,273.5 Z"/></g>
<g><path style="opacity:1" fill="#404041" d="M 965.5,316.5 C 972.457,317.386 979.457,317.72 986.5,317.5C 990.647,318.325 994.981,318.825 999.5,319C 985.155,319.833 970.822,319.666 956.5,318.5C 959.642,317.833 962.642,317.166 965.5,316.5 Z"/></g>
<g><path style="opacity:1" fill="#6c6b6b" d="M 813.5,311.5 C 812.232,320.845 812.232,330.178 813.5,339.5C 812.833,339.5 812.167,339.5 811.5,339.5C 810.345,332.679 810.179,325.679 811,318.5C 811.156,315.809 811.989,313.476 813.5,311.5 Z"/></g>
<g><path style="opacity:1" fill="#19191a" d="M 1093.5,292.5 C 1091.5,292.5 1089.5,292.5 1087.5,292.5C 1087.5,300.167 1087.5,307.833 1087.5,315.5C 1086.5,336.994 1086.17,358.66 1086.5,380.5C 1080.17,380.5 1073.83,380.5 1067.5,380.5C 1067.5,351.167 1067.5,321.833 1067.5,292.5C 1069.12,320.748 1069.79,349.748 1069.5,379.5C 1074.83,379.5 1080.17,379.5 1085.5,379.5C 1085.2,350.142 1085.53,320.808 1086.5,291.5C 1089.06,291.198 1091.39,291.532 1093.5,292.5 Z"/></g>
<g><path style="opacity:1" fill="#9c9c9c" d="M 701.5,333.5 C 704.228,333.171 706.562,333.837 708.5,335.5C 705.933,335.279 703.599,334.612 701.5,333.5 Z"/></g>
<g><path style="opacity:1" fill="#858485" d="M 910.5,366.5 C 911.483,351.912 911.816,337.245 911.5,322.5C 895.833,322.5 880.167,322.5 864.5,322.5C 864.5,328.167 864.5,333.833 864.5,339.5C 873.5,339.5 882.5,339.5 891.5,339.5C 891.813,343.042 891.479,346.375 890.5,349.5C 890.5,346.5 890.5,343.5 890.5,340.5C 883.5,340.5 876.5,340.5 869.5,340.5C 867.5,340.5 865.5,340.5 863.5,340.5C 863.5,334.167 863.5,327.833 863.5,321.5C 879.833,321.5 896.167,321.5 912.5,321.5C 913.15,336.871 912.484,351.871 910.5,366.5 Z"/></g>
<g><path style="opacity:1" fill="#4b4b4c" d="M 865.5,323.5 C 880.167,323.5 894.833,323.5 909.5,323.5C 909.666,332.173 909.5,340.84 909,349.5C 908.5,341.173 908.334,332.84 908.5,324.5C 894.5,324.5 880.5,324.5 866.5,324.5C 866.5,328.833 866.5,333.167 866.5,337.5C 872.842,337.334 879.175,337.5 885.5,338C 878.842,338.5 872.175,338.666 865.5,338.5C 865.5,333.5 865.5,328.5 865.5,323.5 Z"/></g>
<g><path style="opacity:1" fill="#b9b9b9" d="M 869.5,340.5 C 876.5,340.5 883.5,340.5 890.5,340.5C 890.5,343.5 890.5,346.5 890.5,349.5C 890.795,351.735 890.461,353.735 889.5,355.5C 889.5,350.833 889.5,346.167 889.5,341.5C 882.646,341.824 875.979,341.491 869.5,340.5 Z"/></g>
<g><path style="opacity:1" fill="#404042" d="M 585.5,312.5 C 586.156,335.192 585.489,357.525 583.5,379.5C 582.844,356.808 583.511,334.475 585.5,312.5 Z"/></g>
<g><path style="opacity:1" fill="#505050" d="M 1087.5,315.5 C 1087.5,337.5 1087.5,359.5 1087.5,381.5C 1084.17,381.5 1080.83,381.5 1077.5,381.5C 1073.96,381.813 1070.62,381.479 1067.5,380.5C 1073.83,380.5 1080.17,380.5 1086.5,380.5C 1086.17,358.66 1086.5,336.994 1087.5,315.5 Z"/></g>
<g><path style="opacity:1" fill="#999999" d="M 811.5,339.5 C 812.167,339.5 812.833,339.5 813.5,339.5C 814.038,343.524 814.705,347.524 815.5,351.5C 813.194,347.915 811.861,343.915 811.5,339.5 Z"/></g>
<g><path style="opacity:1" fill="#5e5d5e" d="M 750.5,337.5 C 751.315,338.429 752.148,339.429 753,340.5C 753.818,346.349 753.652,352.015 752.5,357.5C 752.489,350.758 751.822,344.092 750.5,337.5 Z"/></g>
<g><path style="opacity:1" fill="#969595" d="M 999.5,336.5 C 999.5,351.5 999.5,366.5 999.5,381.5C 1006.83,381.5 1014.17,381.5 1021.5,381.5C 1014.02,382.492 1006.35,382.825 998.5,382.5C 998.5,367.167 998.5,351.833 998.5,336.5C 984.5,336.5 970.5,336.5 956.5,336.5C 956.5,352.167 956.5,367.833 956.5,383.5C 951.305,383.821 946.305,383.487 941.5,382.5C 946.167,382.5 950.833,382.5 955.5,382.5C 955.5,371.167 955.5,359.833 955.5,348.5C 955.5,347.5 955.5,346.5 955.5,345.5C 955.5,342.167 955.5,338.833 955.5,335.5C 970.343,335.171 985.01,335.504 999.5,336.5 Z"/></g>
<g><path style="opacity:1" fill="#137cb4" d="M 217.5,348.5 C 223.663,354.495 229.996,360.329 236.5,366C 244.477,371.822 253.143,376.322 262.5,379.5C 263.167,380.167 263.833,380.833 264.5,381.5C 267.286,383.397 270.286,385.063 273.5,386.5C 270.869,388.005 271.203,388.671 274.5,388.5C 274.167,390.5 273.833,392.5 273.5,394.5C 276.244,395.51 278.577,395.176 280.5,393.5C 281.5,394.833 282.5,394.833 283.5,393.5C 285.395,394.973 287.061,396.64 288.5,398.5C 290.915,397.695 293.249,396.695 295.5,395.5C 296.5,396.5 297.5,397.5 298.5,398.5C 297.675,403.911 298.175,409.244 300,414.5C 300.748,412.668 301.748,411.001 303,409.5C 304.806,412.479 306.973,415.146 309.5,417.5C 309,418.5 308.5,419.5 308,420.5C 306.333,419.833 304.667,419.167 303,418.5C 301.836,420.649 300.67,422.815 299.5,425C 303.745,427.658 303.411,429.492 298.5,430.5C 298.624,431.107 298.957,431.44 299.5,431.5C 292.102,432.421 284.769,432.755 277.5,432.5C 271.228,432.213 265.061,431.213 259,429.5C 257.93,429.528 257.097,429.861 256.5,430.5C 252.025,430.979 249.025,433.312 247.5,437.5C 234.696,456.491 222.03,475.657 209.5,495C 207.167,495.667 204.833,495.667 202.5,495C 177.118,487.249 153.785,475.583 132.5,460C 131.978,459.439 131.645,458.772 131.5,458C 149.32,436.178 167.153,414.345 185,392.5C 187.088,389.956 186.921,387.623 184.5,385.5C 186.057,382.846 187.89,380.18 190,377.5C 191,378.5 192,379.5 193,380.5C 194.067,379.809 195.234,379.309 196.5,379C 192.966,374.924 192.633,370.591 195.5,366C 198.877,365.548 202.211,364.882 205.5,364C 204.296,360.809 205.463,358.643 209,357.5C 211.907,358.244 214.073,359.91 215.5,362.5C 216.086,362.291 216.586,361.957 217,361.5C 215.793,359.038 214.626,356.371 213.5,353.5C 213.676,350.775 215.01,349.108 217.5,348.5 Z"/></g>
<g><path style="opacity:1" fill="#828282" d="M 1183.5,344.5 C 1187.5,348.833 1187.5,353.167 1183.5,357.5C 1183.5,353.167 1183.5,348.833 1183.5,344.5 Z"/></g>
<g><path style="opacity:1" fill="#bdbcbb" d="M 1060.5,293.5 C 1062.17,293.5 1063.83,293.5 1065.5,293.5C 1065.78,322.67 1066.45,351.67 1067.5,380.5C 1070.62,381.479 1073.96,381.813 1077.5,381.5C 1080.62,382.479 1083.96,382.813 1087.5,382.5C 1080.02,383.492 1072.35,383.825 1064.5,383.5C 1064.5,353.833 1064.5,324.167 1064.5,294.5C 1062.9,294.768 1061.57,294.434 1060.5,293.5 Z"/></g>
<g><path style="opacity:1" fill="#a0a0a1" d="M 857.5,361.5 C 863.833,361.5 870.167,361.5 876.5,361.5C 873.45,362.935 870.117,363.602 866.5,363.5C 863.186,363.657 860.186,362.991 857.5,361.5 Z"/></g>
<g><path style="opacity:1" fill="#b1b1b1" d="M 722.5,361.5 C 716.983,364.957 711.316,365.291 705.5,362.5C 711.196,362.553 716.862,362.22 722.5,361.5 Z"/></g>
<g><path style="opacity:1" fill="#a8a8a9" d="M 1158.5,362.5 C 1164.17,362.5 1169.83,362.5 1175.5,362.5C 1169.85,365.103 1164.18,365.103 1158.5,362.5 Z"/></g>
<g><path style="opacity:1" fill="#3f3f40" d="M 955.5,345.5 C 955.5,346.5 955.5,347.5 955.5,348.5C 955.158,359.04 954.158,369.374 952.5,379.5C 952.167,365.817 952.501,352.15 953.5,338.5C 954.168,340.969 954.835,343.302 955.5,345.5 Z"/></g>
<g><path style="opacity:1" fill="#acabab" d="M 586.5,333.5 C 587.497,349.992 587.83,366.658 587.5,383.5C 581.642,383.822 575.975,383.489 570.5,382.5C 575.833,382.5 581.167,382.5 586.5,382.5C 586.5,366.167 586.5,349.833 586.5,333.5 Z"/></g>
<g><path style="opacity:1" fill="#5e5d5e" d="M 844.5,380.5 C 856.485,381.243 868.485,381.576 880.5,381.5C 875.252,383.022 869.752,383.689 864,383.5C 857.116,383.935 850.616,382.935 844.5,380.5 Z"/></g>
<g><path style="opacity:1" fill="#7b7a7a" d="M 933.5,273.5 C 933.168,309.337 933.502,345.004 934.5,380.5C 940.358,380.822 946.025,380.489 951.5,379.5C 951.833,379.5 952.167,379.5 952.5,379.5C 954.158,369.374 955.158,359.04 955.5,348.5C 955.5,359.833 955.5,371.167 955.5,382.5C 950.833,382.5 946.167,382.5 941.5,382.5C 938.482,382.296 935.482,381.963 932.5,381.5C 932.168,345.329 932.502,309.329 933.5,273.5 Z"/></g>
<g><path style="opacity:1" fill="#929292" d="M 632.5,380.5 C 634.167,380.5 635.833,380.5 637.5,380.5C 642.975,381.489 648.642,381.822 654.5,381.5C 648.347,382.653 642.014,382.82 635.5,382C 634.263,381.768 633.263,381.268 632.5,380.5 Z"/></g>
<g><path style="opacity:1" fill="#9b9a99" d="M 791.5,305.5 C 792.498,330.995 792.831,356.661 792.5,382.5C 787.968,382.818 783.634,382.485 779.5,381.5C 783.5,381.5 787.5,381.5 791.5,381.5C 791.5,356.167 791.5,330.833 791.5,305.5 Z"/></g>
<g><path style="opacity:1" fill="#7c7b7c" d="M 1149.5,380.5 C 1153.16,380.723 1156.5,381.723 1159.5,383.5C 1155.74,383.605 1152.41,382.605 1149.5,380.5 Z"/></g>
<g><path style="opacity:1" fill="#858585" d="M 1183.5,380.5 C 1180.75,382.975 1177.42,383.975 1173.5,383.5C 1176.55,381.899 1179.88,380.899 1183.5,380.5 Z"/></g>
<g><path style="opacity:1" fill="#83bada" d="M 262.5,379.5 C 270.218,380.677 277.885,382.177 285.5,384C 299.33,385.22 312.996,384.386 326.5,381.5C 324.04,382.891 321.374,384.058 318.5,385C 300.216,387.797 282.216,386.631 264.5,381.5C 263.833,380.833 263.167,380.167 262.5,379.5 Z"/></g>
<g><path style="opacity:1" fill="#1f3555" d="M 404.5,455.5 C 404.5,454.5 404.5,453.5 404.5,452.5C 403.127,452.657 401.793,452.49 400.5,452C 399.853,450.391 399.02,448.891 398,447.5C 385.988,453.18 373.988,458.514 362,463.5C 361.228,463.355 360.561,463.022 360,462.5C 354.75,465.59 349.084,467.924 343,469.5C 342.228,469.355 341.561,469.022 341,468.5C 340.5,469.667 339.667,470.5 338.5,471C 339.5,471.333 340.5,471.667 341.5,472C 339.047,472.738 336.547,473.238 334,473.5C 332.342,473.325 331.009,472.658 330,471.5C 314.714,474.828 299.214,475.995 283.5,475C 279.137,474.106 274.804,473.106 270.5,472C 271.737,471.768 272.737,471.268 273.5,470.5C 273.833,470.5 274.167,470.5 274.5,470.5C 274.611,471.117 274.944,471.617 275.5,472C 290.037,472.902 304.37,472.402 318.5,470.5C 319.167,470.5 319.833,470.5 320.5,470.5C 325.64,471.09 330.307,470.09 334.5,467.5C 383.899,457.237 423.065,431.571 452,390.5C 441.136,415.57 425.303,437.237 404.5,455.5 Z"/></g>
<g><path style="opacity:1" fill="#d5e6ef" d="M 344.5,429.5 C 336.462,434.964 327.462,437.464 317.5,437C 299.808,437.825 282.142,437.491 264.5,436C 260.693,434.119 256.693,432.953 252.5,432.5C 253.167,434.819 253.334,437.153 253,439.5C 251.556,437.845 249.722,437.178 247.5,437.5C 249.025,433.312 252.025,430.979 256.5,430.5C 263.917,433.132 271.584,434.465 279.5,434.5C 279.611,435.117 279.944,435.617 280.5,436C 290.675,436.825 300.675,436.658 310.5,435.5C 322.057,434.64 333.39,432.64 344.5,429.5 Z"/></g>
<g><path style="opacity:1" fill="#4290bb" d="M 277.5,432.5 C 284.769,432.755 292.102,432.421 299.5,431.5C 302.85,431.335 306.183,431.502 309.5,432C 308.167,432.667 308.167,433.333 309.5,434C 298.713,434.901 288.047,434.401 277.5,432.5 Z"/></g>
<g><path style="opacity:1" fill="#75a6c3" d="M 279.5,434.5 C 289.802,435.4 300.135,435.733 310.5,435.5C 300.675,436.658 290.675,436.825 280.5,436C 279.944,435.617 279.611,435.117 279.5,434.5 Z"/></g>
<g><path style="opacity:1" fill="#133458" d="M 404.5,455.5 C 376.49,482.703 342.824,498.536 303.5,503C 283.462,505.114 263.462,504.948 243.5,502.5C 249.979,491.874 255.646,480.874 260.5,469.5C 265.032,469.182 269.366,469.515 273.5,470.5C 272.737,471.268 271.737,471.768 270.5,472C 274.804,473.106 279.137,474.106 283.5,475C 299.214,475.995 314.714,474.828 330,471.5C 331.009,472.658 332.342,473.325 334,473.5C 336.547,473.238 339.047,472.738 341.5,472C 340.5,471.667 339.5,471.333 338.5,471C 339.667,470.5 340.5,469.667 341,468.5C 341.561,469.022 342.228,469.355 343,469.5C 349.084,467.924 354.75,465.59 360,462.5C 360.561,463.022 361.228,463.355 362,463.5C 373.988,458.514 385.988,453.18 398,447.5C 399.02,448.891 399.853,450.391 400.5,452C 401.793,452.49 403.127,452.657 404.5,452.5C 404.5,453.5 404.5,454.5 404.5,455.5 Z"/></g>
<g><path style="opacity:1" fill="#788597" d="M 334.5,467.5 C 330.307,470.09 325.64,471.09 320.5,470.5C 325.1,469.666 329.766,468.666 334.5,467.5 Z"/></g>
<g><path style="opacity:1" fill="#838e9f" d="M 274.5,470.5 C 289.167,470.5 303.833,470.5 318.5,470.5C 304.37,472.402 290.037,472.902 275.5,472C 274.944,471.617 274.611,471.117 274.5,470.5 Z"/></g>
</svg>
